<svg width="1257" height="1280" version="1.1" xmlns="http://www.w3.org/2000/svg" desc="Created with imagetracer.js version 1.2.6" ><path fill="rgb(220,39,34)" stroke="rgb(220,39,34)" stroke-width="1" opacity="1" d="M 682.5 125 L 748.5 126 L 754.5 128 L 755.5 127 L 763.5 127 L 774.5 129 L 795.5 130 L 800.5 132 L 818.5 134 L 823.5 136 L 852.5 141 L 858.5 144 L 861.5 143 L 922 162 L 922.5 164 L 924.5 163 L 928 164 L 928.5 166 L 930.5 166 L 952 174.5 L 950 175.5 L 953.5 176 L 955.5 176 L 962 178.5 L 960 179.5 L 962.5 180 L 964.5 180 Q 966.8 179.3 966 181.5 L 968.5 182 L 976.5 186 L 979.5 186 L 987 190.5 L 986.5 192 L 988.5 191 L 1008 202 L 1008.5 204 L 1010.5 204 L 1015 206.5 L 1014.5 208 L 1016.5 207 L 1041 222.5 L 1040.5 224 L 1043.5 224 L 1055.5 232 L 1065 240.5 L 1053.5 253 L 1052 252.5 L 1047.5 258 L 1043.5 261 L 1042 260.5 L 1041.5 263 L 1040.5 261 L 1036.5 267 L 1019.5 281 L 1018 280.5 L 1016 283.5 Q 1013.6 287.6 1008 288.5 L 1009 289.5 L 1005.5 293 L 1004 292.5 L 1001.5 296 L 998 296.5 L 1000 297.5 Q 998.8 300.3 997.5 298 L 996 298.5 L 997 299.5 L 990.5 306 L 977.5 317 L 976 316.5 L 975 320 L 964.5 328 L 962 328 L 962 330 Q 959.3 328.9 960 331.5 L 951.5 339 L 950 338.5 L 946.5 343 L 944 342 L 942.5 346 Q 937.1 344.1 938 347.5 L 940 347.5 L 930 355 L 929.5 357 L 928 356.5 L 925.5 360 L 919.5 365 L 918 364.5 L 911.5 372 Q 909.3 371.3 910 373.5 L 899.5 383 L 896 384 L 893.5 388 L 888.5 392 L 886 392 L 886 394 Q 883.3 392.9 884 395.5 L 874.5 404 L 872 404 L 869.5 408 L 862.5 414 L 860 414 L 857.5 418 L 825.5 445 L 824 444.5 L 819.5 450 L 801.5 465 L 800 464.5 L 797.5 468 Q 795.3 467.3 796 469.5 L 786.5 478 L 784 478 L 783 482 L 766.5 495 L 759.5 497 L 735 481.5 L 735.5 480 L 733.5 481 L 728 478 L 727.5 476 L 725.5 476 L 720 474 L 719.5 472 L 717.5 472 L 710 470 L 709.5 468 L 707.5 469 L 695.5 464 L 678 460 L 677.5 458 L 674.5 459 L 673.5 458 L 666.5 458 Q 660.9 455.1 652 455.5 L 656 454.5 L 648.5 454 Q 646.8 456.8 640.5 455 L 639.5 454 L 613.5 454 L 609.5 455 Q 608 452.5 602.5 454 L 602.5 455 L 605 455.5 L 597.5 457 Q 596 454.5 590.5 456 L 590.5 458 L 576.5 460 L 562.5 465 L 560 464 Q 561.3 467 557.5 466 L 545.5 471 L 544 470.5 L 542.5 473 L 527.5 481 L 526 480.5 L 523.5 484 L 521.5 485 L 520 484.5 L 517.5 488 L 512 490 Q 513.1 492.7 510.5 492 Q 508.2 496.2 506 494.5 L 504.5 497 L 502.5 496 L 503 497.5 L 497.5 503 L 496.5 501 L 496 503.5 L 490.5 509 L 480 518.5 L 463.5 540 L 462 540.5 L 462 542.5 L 457.5 550 L 456.5 548 L 456 550.5 Q 458.5 552 455 553.5 L 453.5 557 L 452 556.5 L 453 558.5 L 450 560.5 L 451 562.5 L 443 580.5 L 438 606 Q 434.7 604.7 436 609.5 Q 438.2 610.8 437 615.5 L 436 616.5 L 436 651.5 L 437 652.5 L 437 659.5 L 439 669.5 L 438 672 Q 441.7 670.6 440 676.5 L 441 678.5 Q 438.5 680 442 681.5 L 443 686.5 L 442.5 688 Q 445.1 687.2 444 690.5 L 445 692.5 L 444.5 694 Q 446.8 693.3 446 695.5 L 449 701.5 L 448 703.5 L 450 703.5 L 454 713.5 Q 464.6 727.4 472 744.5 L 470 748 L 466 750.5 Q 466.7 753.1 464 752 L 464 754 L 462.5 754 L 412.5 796 L 410 796 L 407.5 800 L 400 805 Q 401.1 807.7 398.5 807 L 369.5 831 L 368 830.5 L 366 833.5 L 358.5 840 L 356 840 L 350.5 847 L 343.5 853 L 342 852.5 L 339.5 856 Q 334.7 854.3 336 858.5 L 330.5 864 L 328 864 L 326.5 867 L 311.5 880 L 308 880.5 L 309 881.5 L 305.5 885 L 304 884.5 Q 305.1 887.8 302.5 887 L 293.5 895 L 292 894.5 L 289.5 898 L 289.5 896 Q 286.9 895.2 288 898.5 L 268.5 916 L 266 916 L 263.5 920 L 259.5 923 L 258 922.5 Q 258.7 925.1 256 924 L 255.5 922 L 253.5 922 L 250.5 920 L 240 908.5 L 239.5 906 L 238 906.5 L 228 894.5 L 228 892 L 224 889.5 L 223.5 886 Q 221.8 888.8 220 884.5 L 203 861.5 L 203.5 860 L 201 858.5 L 191 840.5 L 192 838.5 L 189 837.5 L 187 833.5 L 187.5 832 Q 185.3 832.8 186 830.5 L 179 818.5 L 180 816.5 L 177 815.5 L 175 810.5 L 176 808.5 L 174 808.5 L 171 802.5 L 172 800.5 L 170 800.5 L 169 797.5 L 170 794.5 L 169 794.5 L 168.5 796 L 165 787.5 L 166 784.5 L 165 784.5 L 164.5 786 L 159 772.5 L 160 768.5 L 159 768.5 L 158.5 770 L 157 765.5 L 157.5 764 Q 154.9 764.8 156 761.5 L 155 759.5 L 155.5 758 Q 152.9 758.8 154 755.5 L 153 753.5 L 153.5 752 Q 150.9 752.8 152 749.5 L 151 747.5 L 151.5 746 Q 148.5 746.9 150 742.5 L 147 733.5 L 147.5 732 Q 144.5 732.9 146 728.5 L 144 724.5 L 141 709.5 L 142 704.5 L 141 704.5 L 140.5 707 L 137 685.5 L 138 680 Q 134 681.4 136 674.5 L 134 667.5 L 134 651.5 L 133 646.5 L 134 645.5 L 134 616.5 Q 131.3 614.8 133 608.5 L 134 603.5 Q 131.5 602 133 596.5 L 134 595.5 L 134.5 579 L 135.5 584 L 136 578.5 L 135 576.5 L 136 574.5 L 135 571.5 L 136 570.5 L 136.5 562 L 137.5 568 L 138 556.5 L 137 554.5 L 140 536 Q 143 537.3 142 533.5 L 141 531.5 L 142.5 528 L 143.5 532 L 144 525.5 L 143 523.5 L 144.5 518 L 145.5 520 L 146 517.5 L 145 515.5 L 146.5 510 L 147.5 516 L 148 509.5 L 147 507.5 L 148.5 504 L 149.5 506 L 150 502.5 L 150 500.5 Q 149.3 496.3 152 495.5 L 151 493.5 L 152 490 Q 154.7 491.1 154 488.5 L 154 486.5 L 154.5 483 L 155.5 486 L 156 476 L 158 475.5 L 157 473.5 L 158.5 470 L 159.5 472 L 160 465.5 L 161.5 464 Q 166.1 465.4 164 459.5 L 164 457.5 Q 163.3 455.3 165.5 456 L 166 453.5 L 168 450.5 L 168 448.5 L 168.5 446 L 169.5 448 L 170 445.5 L 170 443.5 L 170.5 441 L 172 441.5 L 171 439.5 L 172.5 437 L 174 437.5 L 173 435.5 L 178.5 425 L 180 425.5 L 179 423.5 L 182.5 418 L 183.5 420 L 184 417.5 L 184 415.5 L 184.5 414 L 185.5 416 L 186 413.5 L 186 411.5 L 186.5 410 L 187.5 412 L 188.5 406 L 189.5 408 L 190 405.5 L 190 403.5 L 190.5 402 L 191.5 404 L 192 401.5 Q 189.5 400 193 398.5 L 194.5 395 L 195.5 397 L 196.5 392 L 197.5 394 L 198 391.5 Q 195.8 390.3 198.5 389 L 200 389.5 L 199 387.5 L 201.5 384 Q 205.3 385.3 204 381.5 Q 201.8 380.3 204.5 379 L 206 379.5 L 205 377.5 L 210.5 369 L 211 370.5 L 210.5 372 L 212 372 L 212 366.5 L 213.5 366 L 214.5 363 L 216 363.5 L 216 360 Q 219 361.3 218 357.5 L 230.5 342 Q 233.1 342.8 232 339.5 L 238.5 332 Q 241.1 332.8 240 329.5 L 244 327.5 L 243 326.5 L 248 321.5 L 254 313.5 L 281.5 286 Q 285.3 287 284 284 L 288 284 L 288 282.5 L 286 282.5 L 300.5 269 L 302 269.5 L 305.5 265 L 309.5 262 L 312 262 L 316.5 256 L 320 255.5 Q 317.3 253.7 321.5 252 L 327.5 248 L 330 248 L 332.5 244 L 354.5 229 L 356 229.5 L 358.5 226 L 366.5 221 L 367.5 223 L 368 220 L 372 219.5 L 371.5 218 L 376.5 215 L 379.5 216 L 379.5 215 L 378 214.5 L 398.5 203 L 400 203.5 L 401.5 201 L 412.5 195 L 414 195.5 Q 413.3 193.3 415.5 194 L 420.5 191 L 422 191.5 Q 421.3 189.3 423.5 190 L 436.5 183 L 438 183.5 Q 437.3 181.3 439.5 182 L 446.5 179 L 448 179.5 Q 447.2 176.9 450.5 178 Q 452.8 175 458 176 Q 456.9 173.3 459.5 174 L 466.5 171 L 469.5 172 L 469.5 171 L 468 170.5 L 476.5 167 L 479.5 168 L 479.5 167 L 478 166.5 L 482.5 165 L 484 165.5 Q 483.3 163.3 485.5 164 L 487.5 163 L 489.5 164 L 489.5 162 L 498.5 159 L 503.5 160 L 503.5 159 L 501 158.5 L 510.5 155 Q 512 157.5 513.5 154 L 517.5 153 L 520 154 Q 518.8 151 522.5 152 L 524.5 151 L 527.5 152 L 527.5 150 L 538.5 147 L 543.5 148 L 543.5 147 L 540 146.5 L 552.5 143 L 554.5 143 L 564.5 140 L 569.5 140 L 574.5 138 L 593.5 135 L 597.5 136 L 597.5 135 L 596 134.5 L 614.5 131 L 620.5 131 L 623.5 132 L 623.5 131 L 622 130.5 L 652.5 127 L 653.5 128 L 663.5 128 L 663.5 126 L 681.5 126 L 682.5 125 Z M 430 187 L 430 188 L 432 188 L 430 187 Z M 978 187 L 978 188 L 980 188 L 978 187 Z M 912 368 L 912 370 L 914 369 L 912 368 Z M 208 375 L 206 378 L 208 378 L 208 375 Z M 880 396 L 880 398 L 882 397 L 880 396 Z M 492 504 L 492 506 L 494 505 L 492 504 Z M 490 506 L 490 508 L 492 507 L 490 506 Z " /><path fill="rgb(220,39,34)" stroke="rgb(220,39,34)" stroke-width="1" opacity="1" d="M 162.5 460 L 163 463 L 161 462.5 L 162.5 460 Z " /><path fill="rgb(140,90,89)" stroke="rgb(140,90,89)" stroke-width="1" opacity="1" d="M 696.5 1 L 713.5 1 L 723.5 3 L 738 3.5 L 722.5 4 L 713.5 2 L 696.5 2 L 696.5 1 Z " /><path fill="rgb(140,90,89)" stroke="rgb(140,90,89)" stroke-width="1" opacity="1" d="M 683.5 2 L 695 2.5 L 684.5 3 L 683.5 4 L 666.5 4 L 666.5 3 L 682.5 3 L 683.5 2 Z " /><path fill="rgb(140,90,89)" stroke="rgb(140,90,89)" stroke-width="1" opacity="1" d="M 638.5 4 L 652 4.5 L 638.5 5 L 634.5 7 L 615.5 7 L 615.5 6 L 634.5 6 L 638.5 4 Z " /><path fill="rgb(140,90,89)" stroke="rgb(140,90,89)" stroke-width="1" opacity="1" d="M 770.5 4 Q 776.5 3 778.5 6 L 800 6.5 L 778.5 7 Q 776.5 4 770.5 5 L 770.5 4 Z " /><path fill="rgb(140,90,89)" stroke="rgb(140,90,89)" stroke-width="1" opacity="1" d="M 609.5 7 L 612 7.5 L 607.5 9 L 607.5 8 L 609.5 7 Z " /><path fill="rgb(140,90,89)" stroke="rgb(140,90,89)" stroke-width="1" opacity="1" d="M 802.5 7 L 807.5 9 L 821.5 9 L 827 11.5 L 824.5 12 L 821.5 10 L 807.5 10 L 802.5 8 L 802.5 7 Z " /><path fill="rgb(140,90,89)" stroke="rgb(140,90,89)" stroke-width="1" opacity="1" d="M 592.5 9 L 606 9.5 L 592.5 10 L 587.5 12 L 587.5 11 L 592.5 9 Z " /><path fill="rgb(140,90,89)" stroke="rgb(140,90,89)" stroke-width="1" opacity="1" d="M 575.5 12 L 584 12.5 L 575.5 13 Q 574.1 15.6 569.5 15 L 569.5 14 Q 574.1 14.6 575.5 12 Z " /><path fill="rgb(140,90,89)" stroke="rgb(140,90,89)" stroke-width="1" opacity="1" d="M 828.5 12 L 838.5 12 L 845 14.5 L 841.5 15 Q 838 11 828.5 13 L 828.5 12 Z " /><path fill="rgb(140,90,89)" stroke="rgb(140,90,89)" stroke-width="1" opacity="1" d="M 560.5 15 L 563 15.5 L 557.5 18 L 548.5 18 L 548.5 17 Q 557.3 18.8 560.5 15 Z " /><path fill="rgb(140,90,89)" stroke="rgb(140,90,89)" stroke-width="1" opacity="1" d="M 852.5 15 L 857.5 17 L 867 17.5 L 857.5 18 L 852.5 16 L 852.5 15 Z " /><path fill="rgb(140,90,89)" stroke="rgb(140,90,89)" stroke-width="1" opacity="1" d="M 546.5 18 L 545.5 20 L 536.5 21 L 536.5 20 Q 543.9 21.4 546.5 18 Z " /><path fill="rgb(140,90,89)" stroke="rgb(140,90,89)" stroke-width="1" opacity="1" d="M 868.5 18 Q 871.8 21.2 879.5 20 L 884 22.5 L 882.5 23 Q 879.6 19.4 871.5 21 L 868.5 18 Z " /><path fill="rgb(140,90,89)" stroke="rgb(140,90,89)" stroke-width="1" opacity="1" d="M 534.5 21 L 533.5 23 L 531 22.5 L 534.5 21 Z " /><path fill="rgb(140,90,89)" stroke="rgb(140,90,89)" stroke-width="1" opacity="1" d="M 523.5 23 L 530 23.5 L 516.5 26 L 516.5 25 Q 521.8 25.8 523.5 23 Z " /><path fill="rgb(140,90,89)" stroke="rgb(140,90,89)" stroke-width="1" opacity="1" d="M 885.5 23 L 891.5 23 Q 893 26.1 898 25.5 L 893.5 26 Q 892 22.5 885.5 24 L 885.5 23 Z " /><path fill="rgb(140,90,89)" stroke="rgb(140,90,89)" stroke-width="1" opacity="1" d="M 512.5 26 L 515 26.5 L 509.5 29 L 502.5 29 L 497.5 32 L 492.5 32 L 492.5 31 L 497.5 31 L 502.5 28 Q 509.9 29.4 512.5 26 Z " /><path fill="rgb(140,90,89)" stroke="rgb(140,90,89)" stroke-width="1" opacity="1" d="M 901.5 26 L 905 27.5 L 903.5 27 Q 900.5 27.5 901.5 26 Z " /><path fill="rgb(140,90,89)" stroke="rgb(140,90,89)" stroke-width="1" opacity="1" d="M 906.5 28 L 912 28.5 L 906.5 29 L 906.5 28 Z " /><path fill="rgb(140,90,89)" stroke="rgb(140,90,89)" stroke-width="1" opacity="1" d="M 913.5 29 L 914.5 31 L 913.5 29 Z " /><path fill="rgb(140,90,89)" stroke="rgb(140,90,89)" stroke-width="1" opacity="1" d="M 916.5 31 Q 923 30 925 33.5 L 923.5 34 Q 922.3 30.7 916.5 32 L 916.5 31 Z " /><path fill="rgb(140,90,89)" stroke="rgb(140,90,89)" stroke-width="1" opacity="1" d="M 490.5 32 L 489.5 34 L 488 33.5 L 490.5 32 Z " /><path fill="rgb(140,90,89)" stroke="rgb(140,90,89)" stroke-width="1" opacity="1" d="M 482.5 34 L 486 34.5 Q 481.8 34.3 480.5 37 L 476.5 37 L 476.5 36 Q 481.5 37 482.5 34 Z " /><path fill="rgb(140,90,89)" stroke="rgb(140,90,89)" stroke-width="1" opacity="1" d="M 926.5 34 L 936 36.5 L 931.5 37 Q 930.8 34.3 926.5 35 L 926.5 34 Z " /><path fill="rgb(140,90,89)" stroke="rgb(140,90,89)" stroke-width="1" opacity="1" d="M 473.5 37 L 475 37.5 L 472.5 39 L 473.5 37 Z " /><path fill="rgb(140,90,89)" stroke="rgb(140,90,89)" stroke-width="1" opacity="1" d="M 937.5 37 L 959 44.5 L 956.5 45 L 954.5 43 Q 947.7 43.7 945.5 40 L 940.5 40 L 937.5 37 Z " /><path fill="rgb(140,90,89)" stroke="rgb(140,90,89)" stroke-width="1" opacity="1" d="M 464.5 39 L 471 39.5 Q 464.3 38.8 461.5 42 L 461.5 41 L 464.5 39 Z " /><path fill="rgb(140,90,89)" stroke="rgb(140,90,89)" stroke-width="1" opacity="1" d="M 456.5 42 L 460 42.5 L 453.5 45 L 453.5 44 L 456.5 42 Z " /><path fill="rgb(140,90,89)" stroke="rgb(140,90,89)" stroke-width="1" opacity="1" d="M 447.5 45 L 451 45.5 L 442.5 48 L 442.5 47 Q 446.8 47.8 447.5 45 Z " /><path fill="rgb(140,90,89)" stroke="rgb(140,90,89)" stroke-width="1" opacity="1" d="M 960.5 45 L 969 47.5 L 965.5 48 Q 964.8 45.3 960.5 46 L 960.5 45 Z " /><path fill="rgb(140,90,89)" stroke="rgb(140,90,89)" stroke-width="1" opacity="1" d="M 439.5 48 L 441 48.5 L 438.5 50 L 439.5 48 Z " /><path fill="rgb(140,90,89)" stroke="rgb(140,90,89)" stroke-width="1" opacity="1" d="M 970.5 48 L 973 49.5 L 971.5 49 L 970.5 48 Z " /><path fill="rgb(140,90,89)" stroke="rgb(140,90,89)" stroke-width="1" opacity="1" d="M 433.5 50 L 437 50.5 L 430.5 53 L 431.5 51 L 433.5 50 Z " /><path fill="rgb(140,90,89)" stroke="rgb(140,90,89)" stroke-width="1" opacity="1" d="M 974.5 50 L 978 50.5 L 974.5 51 L 974.5 50 Z " /><path fill="rgb(140,90,89)" stroke="rgb(140,90,89)" stroke-width="1" opacity="1" d="M 979.5 51 L 980.5 53 L 979.5 51 Z " /><path fill="rgb(140,90,89)" stroke="rgb(140,90,89)" stroke-width="1" opacity="1" d="M 426.5 53 L 429 53.5 L 422.5 56 L 422.5 55 L 426.5 53 Z " /><path fill="rgb(140,90,89)" stroke="rgb(140,90,89)" stroke-width="1" opacity="1" d="M 982.5 53 L 985.5 53 L 990 55.5 L 987.5 56 Q 986.8 53.3 982.5 54 L 982.5 53 Z " /><path fill="rgb(140,90,89)" stroke="rgb(140,90,89)" stroke-width="1" opacity="1" d="M 418.5 56 L 420 56.5 L 414.5 59 L 414.5 58 L 418.5 56 Z " /><path fill="rgb(140,90,89)" stroke="rgb(140,90,89)" stroke-width="1" opacity="1" d="M 991.5 56 Q 992.9 58.6 997.5 58 L 1000 60.5 L 997.5 59 Q 991.6 59.6 991.5 56 Z " /><path fill="rgb(140,90,89)" stroke="rgb(140,90,89)" stroke-width="1" opacity="1" d="M 411.5 59 L 409.5 62 L 406.5 62 L 395.5 67 L 395.5 66 L 406.5 61 L 409.5 61 L 411.5 59 Z " /><path fill="rgb(140,90,89)" stroke="rgb(140,90,89)" stroke-width="1" opacity="1" d="M 1001.5 61 L 1004 61.5 L 1001.5 62 L 1001.5 61 Z " /><path fill="rgb(140,90,89)" stroke="rgb(140,90,89)" stroke-width="1" opacity="1" d="M 1005.5 62 L 1015 66.5 L 1013.5 67 L 1006.5 64 L 1005.5 62 Z " /><path fill="rgb(140,90,89)" stroke="rgb(140,90,89)" stroke-width="1" opacity="1" d="M 392.5 67 L 394 67.5 L 365.5 81 L 365.5 80 L 381.5 72 L 384.5 72 L 392.5 67 Z " /><path fill="rgb(140,90,89)" stroke="rgb(140,90,89)" stroke-width="1" opacity="1" d="M 1016.5 67 L 1023 69.5 L 1019.5 70 L 1016.5 67 Z " /><path fill="rgb(140,90,89)" stroke="rgb(140,90,89)" stroke-width="1" opacity="1" d="M 675.5 68 L 738.5 68 L 739.5 69 L 772.5 70 L 773.5 71 L 783.5 71 L 784.5 72 L 800 73.5 L 792.5 74 L 791.5 73 L 780.5 73 L 779.5 72 L 756.5 71 L 755.5 70 L 739.5 70 L 738.5 69 L 675.5 69 L 675.5 68 Z " /><path fill="rgb(140,90,89)" stroke="rgb(140,90,89)" stroke-width="1" opacity="1" d="M 656.5 69 L 674 69.5 L 626.5 73 L 626.5 72 L 634.5 72 L 644.5 70 L 655.5 70 L 656.5 69 Z " /><path fill="rgb(140,90,89)" stroke="rgb(140,90,89)" stroke-width="1" opacity="1" d="M 1024.5 70 L 1033 74.5 L 1031.5 75 L 1025.5 72 L 1024.5 70 Z " /><path fill="rgb(140,90,89)" stroke="rgb(140,90,89)" stroke-width="1" opacity="1" d="M 618.5 73 L 625 73.5 L 611.5 75 L 611.5 74 Q 617 75.5 618.5 73 Z " /><path fill="rgb(140,90,89)" stroke="rgb(140,90,89)" stroke-width="1" opacity="1" d="M 801.5 74 L 821.5 76 L 838.5 80 L 849.5 81 L 883 89.5 L 879.5 90 L 863.5 85 L 832.5 79 L 801.5 75 L 801.5 74 Z " /><path fill="rgb(140,90,89)" stroke="rgb(140,90,89)" stroke-width="1" opacity="1" d="M 604.5 75 L 610 75.5 L 556.5 85 L 556.5 84 L 604.5 75 Z " /><path fill="rgb(140,90,89)" stroke="rgb(140,90,89)" stroke-width="1" opacity="1" d="M 1034.5 75 L 1039 77.5 L 1037.5 78 L 1034.5 75 Z " /><path fill="rgb(140,90,89)" stroke="rgb(140,90,89)" stroke-width="1" opacity="1" d="M 1040.5 78 Q 1041.9 80.6 1046.5 80 L 1049.5 83 L 1052.5 83 L 1055.5 86 L 1085.5 102 L 1093 107.5 L 1090.5 106 L 1088.5 106 L 1071.5 95 L 1067.5 94 L 1057.5 87 L 1049.5 84 L 1046.5 81 L 1043.5 81 L 1040.5 78 Z " /><path fill="rgb(140,90,89)" stroke="rgb(140,90,89)" stroke-width="1" opacity="1" d="M 363.5 81 L 362.5 83 L 363.5 81 Z " /><path fill="rgb(140,90,89)" stroke="rgb(140,90,89)" stroke-width="1" opacity="1" d="M 358.5 83 L 361 83.5 L 328.5 100 L 328.5 99 L 358.5 83 Z " /><path fill="rgb(140,90,89)" stroke="rgb(140,90,89)" stroke-width="1" opacity="1" d="M 552.5 85 L 555 85.5 L 552.5 86 L 552.5 85 Z " /><path fill="rgb(140,90,89)" stroke="rgb(140,90,89)" stroke-width="1" opacity="1" d="M 547.5 86 L 551 86.5 L 493.5 102 L 493.5 101 L 547.5 86 Z " /><path fill="rgb(140,90,89)" stroke="rgb(140,90,89)" stroke-width="1" opacity="1" d="M 884.5 90 L 887 90.5 L 884.5 91 L 884.5 90 Z " /><path fill="rgb(140,90,89)" stroke="rgb(140,90,89)" stroke-width="1" opacity="1" d="M 888.5 91 L 909 96.5 L 906.5 97 L 888.5 92 L 888.5 91 Z " /><path fill="rgb(140,90,89)" stroke="rgb(140,90,89)" stroke-width="1" opacity="1" d="M 910.5 97 L 943.5 107 L 957 113.5 L 955.5 114 L 943.5 108 L 910.5 98 L 910.5 97 Z " /><path fill="rgb(140,90,89)" stroke="rgb(140,90,89)" stroke-width="1" opacity="1" d="M 326.5 100 L 324.5 103 L 317.5 106 L 294.5 122 L 292.5 122 L 278.5 131 L 254.5 149 L 258.5 144 L 326.5 100 Z " /><path fill="rgb(140,90,89)" stroke="rgb(140,90,89)" stroke-width="1" opacity="1" d="M 489.5 102 L 492 102.5 L 458.5 114 L 456.5 116 L 443.5 120 L 432.5 126 L 420.5 130 L 420.5 129 L 460.5 112 L 463.5 112 L 468.5 109 L 471.5 109 L 489.5 102 Z " /><path fill="rgb(140,90,89)" stroke="rgb(140,90,89)" stroke-width="1" opacity="1" d="M 1094.5 108 L 1118 123.5 L 1115.5 122 L 1098.5 111 L 1096.5 111 L 1094.5 108 Z " /><path fill="rgb(140,90,89)" stroke="rgb(140,90,89)" stroke-width="1" opacity="1" d="M 958.5 114 L 996.5 130 L 1056.5 162 L 1097.5 189 L 1128.5 212 L 1152.5 233 L 1158 236 L 1159 241 L 1156.5 242 L 1158 239.5 L 1154.5 235 L 1098.5 191 L 1051.5 160 L 1002.5 134 L 964.5 118 L 958.5 115 L 958.5 114 Z " /><path fill="rgb(140,90,89)" stroke="rgb(140,90,89)" stroke-width="1" opacity="1" d="M 1119.5 124 L 1132 132.5 L 1128.5 130 Q 1121.8 128.3 1119.5 124 Z " /><path fill="rgb(140,90,89)" stroke="rgb(140,90,89)" stroke-width="1" opacity="1" d="M 653.5 127 L 664 127.5 L 653.5 128 L 653.5 127 Z " /><path fill="rgb(140,90,89)" stroke="rgb(140,90,89)" stroke-width="1" opacity="1" d="M 752.5 127 L 755 127.5 L 752.5 128 L 752.5 127 Z " /><path fill="rgb(140,90,89)" stroke="rgb(140,90,89)" stroke-width="1" opacity="1" d="M 417.5 130 L 419 130.5 L 376.5 151 L 335.5 175 L 309.5 192 L 266 226 Q 267.1 228.7 264.5 228 L 240.5 250 L 239 250 L 237.5 253 L 234.5 255 L 218 271.5 L 218 273 Q 215.3 271.9 216 274.5 L 171 327.5 L 147 363.5 L 120 411.5 L 103.5 450 L 103 448.5 L 110 430.5 L 124 401.5 L 150 356.5 L 174 321.5 L 215 272 L 218 270.5 L 233.5 254 Q 235.8 254.8 235 252.5 L 278.5 214 L 311.5 189 L 361.5 158 L 417.5 130 Z " /><path fill="rgb(140,90,89)" stroke="rgb(140,90,89)" stroke-width="1" opacity="1" d="M 621.5 131 L 624 131.5 L 621.5 132 L 621.5 131 Z " /><path fill="rgb(140,90,89)" stroke="rgb(140,90,89)" stroke-width="1" opacity="1" d="M 1133.5 133 L 1144 140.5 L 1142.5 141 L 1138 138 Q 1139.1 135.3 1136.5 136 L 1133.5 133 Z " /><path fill="rgb(140,90,89)" stroke="rgb(140,90,89)" stroke-width="1" opacity="1" d="M 594.5 135 L 598 135.5 L 594.5 136 L 594.5 135 Z " /><path fill="rgb(140,90,89)" stroke="rgb(140,90,89)" stroke-width="1" opacity="1" d="M 1145.5 141 L 1154 148.5 L 1151.5 147 L 1145.5 141 Z " /><path fill="rgb(140,90,89)" stroke="rgb(140,90,89)" stroke-width="1" opacity="1" d="M 539.5 147 L 544 147.5 L 539.5 148 L 539.5 147 Z " /><path fill="rgb(140,90,89)" stroke="rgb(140,90,89)" stroke-width="1" opacity="1" d="M 252.5 149 L 250.5 152 L 227 169 Q 228.1 171.7 225.5 171 L 205.5 190 L 196 196 L 194.5 199 L 192 200.5 Q 192.8 202.8 190.5 202 Q 170.5 218.1 157 239 L 154 240.5 L 128 270.5 L 122 280 Q 119.3 278.9 120 281.5 L 113.5 290 L 116 286.5 L 124 274 Q 126.7 275.1 126 272.5 L 165 226.5 L 193.5 198 Q 195.8 198.8 195 196.5 L 206 189 Q 204.9 186.3 207.5 187 L 209 184 L 210.5 184 L 238.5 159 L 247 154 Q 245.9 151.3 248.5 152 L 252.5 149 Z " /><path fill="rgb(140,90,89)" stroke="rgb(140,90,89)" stroke-width="1" opacity="1" d="M 1155.5 149 L 1183.5 170 L 1207.5 192 L 1209 192 L 1211.5 196 L 1245 226.5 L 1253 238.5 L 1252 238.5 L 1244 226 Q 1241.3 227.1 1242 224.5 L 1234 218 L 1232.5 215 L 1199.5 185 L 1198 185 L 1196.5 182 L 1184 172.5 Q 1184.8 170.3 1182.5 171 L 1169.5 160 L 1163.5 157 L 1155.5 149 Z " /><path fill="rgb(140,90,89)" stroke="rgb(140,90,89)" stroke-width="1" opacity="1" d="M 525.5 151 L 528 151.5 L 525.5 152 L 525.5 151 Z " /><path fill="rgb(140,90,89)" stroke="rgb(140,90,89)" stroke-width="1" opacity="1" d="M 499.5 159 L 504 159.5 L 499.5 160 L 499.5 159 Z " /><path fill="rgb(140,90,89)" stroke="rgb(140,90,89)" stroke-width="1" opacity="1" d="M 477.5 167 L 480 167.5 L 477.5 168 L 477.5 167 Z " /><path fill="rgb(140,90,89)" stroke="rgb(140,90,89)" stroke-width="1" opacity="1" d="M 467.5 171 L 470 171.5 L 467.5 172 L 467.5 171 Z " /><path fill="rgb(140,90,89)" stroke="rgb(140,90,89)" stroke-width="1" opacity="1" d="M 950.5 175 L 954 175.5 L 950.5 176 L 950.5 175 Z " /><path fill="rgb(140,90,89)" stroke="rgb(140,90,89)" stroke-width="1" opacity="1" d="M 960.5 179 L 963 179.5 L 960.5 180 L 960.5 179 Z " /><path fill="rgb(140,90,89)" stroke="rgb(140,90,89)" stroke-width="1" opacity="1" d="M 429.5 187 L 432 187.5 L 429.5 188 L 429.5 187 Z " /><path fill="rgb(140,90,89)" stroke="rgb(140,90,89)" stroke-width="1" opacity="1" d="M 977.5 187 L 980 187.5 L 977.5 188 L 977.5 187 Z " /><path fill="rgb(140,90,89)" stroke="rgb(140,90,89)" stroke-width="1" opacity="1" d="M 377.5 215 L 380 215.5 L 377.5 216 L 377.5 215 Z " /><path fill="rgb(140,90,89)" stroke="rgb(140,90,89)" stroke-width="1" opacity="1" d="M 1253.5 240 L 1255 244.5 L 1249.5 252 L 1244.5 256 L 1225.5 273 L 1232.5 265 L 1252 249 L 1254 242.5 L 1253.5 240 Z " /><path fill="rgb(140,90,89)" stroke="rgb(140,90,89)" stroke-width="1" opacity="1" d="M 1154.5 242 L 1147.5 250 Q 1084.2 299.2 1024.5 352 L 1025 350.5 Q 1024.3 348.3 1026.5 349 L 1046 332.5 Q 1045.3 330.3 1047.5 331 L 1057 324 Q 1055.9 321.3 1058.5 322 Q 1079.6 301.4 1104 285 Q 1102.9 282.3 1105.5 283 L 1110 280 Q 1108.9 277.3 1111.5 278 L 1119 272 Q 1117.9 269.3 1120.5 270 L 1154.5 242 Z " /><path fill="rgb(140,90,89)" stroke="rgb(140,90,89)" stroke-width="1" opacity="1" d="M 1223.5 273 L 1218.5 279 L 1196.5 296 L 1196.5 295 L 1223.5 273 Z " /><path fill="rgb(140,90,89)" stroke="rgb(140,90,89)" stroke-width="1" opacity="1" d="M 287.5 282 L 288 284 L 285 283.5 L 287.5 282 Z " /><path fill="rgb(140,90,89)" stroke="rgb(140,90,89)" stroke-width="1" opacity="1" d="M 112.5 291 L 111.5 293 L 112.5 291 Z " /><path fill="rgb(140,90,89)" stroke="rgb(140,90,89)" stroke-width="1" opacity="1" d="M 110.5 294 L 111 295.5 L 106 300.5 L 97 316 Q 94.3 314.9 95 317.5 L 89.5 325 L 91 322.5 L 108 296 Q 110.8 297 110.5 294 Z " /><path fill="rgb(140,90,89)" stroke="rgb(140,90,89)" stroke-width="1" opacity="1" d="M 1194.5 297 L 1196 297.5 L 1188.5 304 L 1194.5 297 Z " /><path fill="rgb(140,90,89)" stroke="rgb(140,90,89)" stroke-width="1" opacity="1" d="M 1186.5 304 L 1184.5 307 L 1158 328 Q 1159.1 330.7 1156.5 330 L 1126.5 355 L 1133.5 347 L 1152.5 333 L 1186.5 304 Z " /><path fill="rgb(140,90,89)" stroke="rgb(140,90,89)" stroke-width="1" opacity="1" d="M 88.5 326 L 89 327.5 L 74.5 352 L 74 350.5 L 88.5 326 Z " /><path fill="rgb(140,90,89)" stroke="rgb(140,90,89)" stroke-width="1" opacity="1" d="M 944 342 L 946 342.5 L 944 343.5 L 944 342 Z " /><path fill="rgb(140,90,89)" stroke="rgb(140,90,89)" stroke-width="1" opacity="1" d="M 938 346 L 941 346.5 L 938.5 348 L 938 346 Z " /><path fill="rgb(140,90,89)" stroke="rgb(140,90,89)" stroke-width="1" opacity="1" d="M 1022.5 352 L 1017.5 358 L 983 386.5 L 983 389.5 L 1022 431.5 L 1052 473.5 L 1049 471.5 L 1034 448.5 L 1008 416 L 1006 416 L 1006 414 Q 1003.3 415.1 1004 412.5 L 998 408 L 981 387.5 L 1014.5 358 L 1018 357 Q 1016.9 354.3 1019.5 355 L 1022.5 352 Z " /><path fill="rgb(140,90,89)" stroke="rgb(140,90,89)" stroke-width="1" opacity="1" d="M 72.5 353 L 73 355.5 L 67.5 364 L 67 362 Q 70.3 363.3 69 358.5 L 72.5 353 Z " /><path fill="rgb(140,90,89)" stroke="rgb(140,90,89)" stroke-width="1" opacity="1" d="M 1124.5 355 L 1122.5 358 L 1083 391.5 L 1086 396.5 L 1083 394.5 L 1082 391.5 Q 1087.9 382.9 1097 379 Q 1095.9 376.3 1098.5 377 L 1100 374 L 1116 363 Q 1114.9 360.3 1117.5 361 L 1124.5 355 Z " /><path fill="rgb(140,90,89)" stroke="rgb(140,90,89)" stroke-width="1" opacity="1" d="M 66.5 365 L 67 366.5 L 59.5 380 L 59 378.5 L 66.5 365 Z " /><path fill="rgb(140,90,89)" stroke="rgb(140,90,89)" stroke-width="1" opacity="1" d="M 211.5 368 L 212 372 L 210 371.5 L 211.5 368 Z " /><path fill="rgb(140,90,89)" stroke="rgb(140,90,89)" stroke-width="1" opacity="1" d="M 912 368 L 914 368.5 L 912 369.5 L 912 368 Z " /><path fill="rgb(140,90,89)" stroke="rgb(140,90,89)" stroke-width="1" opacity="1" d="M 207.5 375 L 208 378 Q 205.3 376.9 206 379.5 L 205 379.5 L 207.5 375 Z " /><path fill="rgb(140,90,89)" stroke="rgb(140,90,89)" stroke-width="1" opacity="1" d="M 203.5 381 L 204 384 L 202 383.5 L 203.5 381 Z " /><path fill="rgb(140,90,89)" stroke="rgb(140,90,89)" stroke-width="1" opacity="1" d="M 58.5 382 L 59 383.5 L 56.5 387 L 56 385.5 L 58.5 382 Z " /><path fill="rgb(140,90,89)" stroke="rgb(140,90,89)" stroke-width="1" opacity="1" d="M 55.5 388 L 56 389.5 L 51.5 398 L 52 396.5 L 55.5 388 Z " /><path fill="rgb(140,90,89)" stroke="rgb(140,90,89)" stroke-width="1" opacity="1" d="M 197.5 391 L 198 393.5 L 197 393.5 L 197.5 391 Z " /><path fill="rgb(140,90,89)" stroke="rgb(140,90,89)" stroke-width="1" opacity="1" d="M 195.5 394 L 196 396.5 L 195 396.5 L 195.5 394 Z " /><path fill="rgb(140,90,89)" stroke="rgb(140,90,89)" stroke-width="1" opacity="1" d="M 880 396 L 882 396.5 L 880 397.5 L 880 396 Z " /><path fill="rgb(140,90,89)" stroke="rgb(140,90,89)" stroke-width="1" opacity="1" d="M 1086.5 398 L 1106 424.5 L 1106 426.5 L 1119 445.5 L 1120 450 Q 1123 448.8 1122 452.5 L 1121 452.5 L 1102 420 Q 1099.3 421.1 1100 418.5 L 1086 399.5 L 1086.5 398 Z " /><path fill="rgb(140,90,89)" stroke="rgb(140,90,89)" stroke-width="1" opacity="1" d="M 50.5 399 L 51 401.5 L 48.5 405 L 48 403.5 L 50.5 399 Z " /><path fill="rgb(140,90,89)" stroke="rgb(140,90,89)" stroke-width="1" opacity="1" d="M 191.5 401 L 192 403.5 L 191 403.5 L 191.5 401 Z " /><path fill="rgb(140,90,89)" stroke="rgb(140,90,89)" stroke-width="1" opacity="1" d="M 189.5 405 L 190 407.5 L 189 407.5 L 189.5 405 Z " /><path fill="rgb(140,90,89)" stroke="rgb(140,90,89)" stroke-width="1" opacity="1" d="M 47.5 406 L 48 408.5 L 42.5 420 L 42 417.5 L 47.5 406 Z " /><path fill="rgb(140,90,89)" stroke="rgb(140,90,89)" stroke-width="1" opacity="1" d="M 187.5 408 L 188 411.5 L 187 411.5 L 187.5 408 Z " /><path fill="rgb(140,90,89)" stroke="rgb(140,90,89)" stroke-width="1" opacity="1" d="M 185.5 413 L 186 415.5 L 185 415.5 L 185.5 413 Z " /><path fill="rgb(140,90,89)" stroke="rgb(140,90,89)" stroke-width="1" opacity="1" d="M 183.5 417 L 184 419.5 L 183 419.5 L 183.5 417 Z " /><path fill="rgb(140,90,89)" stroke="rgb(140,90,89)" stroke-width="1" opacity="1" d="M 41.5 421 L 40 423.5 L 39.5 427 L 39 423.5 L 41.5 421 Z " /><path fill="rgb(140,90,89)" stroke="rgb(140,90,89)" stroke-width="1" opacity="1" d="M 933.5 427 L 948 440.5 L 952.5 446 Q 954.8 445.3 954 447.5 L 967 463 L 971 465.5 Q 996.6 494.9 1014 532.5 L 1012 531.5 Q 1003 511 991 493.5 Q 975 470 955.5 450 Q 953.3 450.8 954 448.5 L 937.5 431 L 933.5 429 L 860.5 490 L 802 541.5 L 802 544.5 Q 812 558.5 818 576.5 L 823 595.5 L 825 613.5 L 824 613.5 L 823 601.5 L 817 576.5 L 801 544.5 L 801 541.5 Q 808.3 532.4 818 527 Q 816.9 524.3 819.5 525 L 849 499.5 Q 848.3 497.3 850.5 498 L 863.5 486 L 869 483 Q 867.9 480.3 870.5 481 L 894 462 Q 892.9 459.3 895.5 460 L 930 431.5 L 933.5 427 Z " /><path fill="rgb(140,90,89)" stroke="rgb(140,90,89)" stroke-width="1" opacity="1" d="M 38.5 428 L 39 429.5 L 37 430.5 L 38.5 428 Z " /><path fill="rgb(140,90,89)" stroke="rgb(140,90,89)" stroke-width="1" opacity="1" d="M 36.5 433 L 37 435.5 Q 33.9 436.9 34.5 442 L 34 437.5 L 36.5 433 Z " /><path fill="rgb(140,90,89)" stroke="rgb(140,90,89)" stroke-width="1" opacity="1" d="M 33.5 443 L 34 444.5 L 32 446.5 Q 33 453 29.5 455 L 30 453.5 L 31 446.5 L 33.5 443 Z " /><path fill="rgb(140,90,89)" stroke="rgb(140,90,89)" stroke-width="1" opacity="1" d="M 169.5 445 L 170 447.5 L 169 447.5 L 169.5 445 Z " /><path fill="rgb(140,90,89)" stroke="rgb(140,90,89)" stroke-width="1" opacity="1" d="M 102.5 451 L 103 452.5 L 92.5 480 L 92 477.5 L 102.5 451 Z " /><path fill="rgb(140,90,89)" stroke="rgb(140,90,89)" stroke-width="1" opacity="1" d="M 602.5 454 L 609 454.5 L 602.5 455 L 602.5 454 Z " /><path fill="rgb(140,90,89)" stroke="rgb(140,90,89)" stroke-width="1" opacity="1" d="M 648.5 454 L 656 454.5 L 648.5 455 L 648.5 454 Z " /><path fill="rgb(140,90,89)" stroke="rgb(140,90,89)" stroke-width="1" opacity="1" d="M 1122.5 454 L 1127 460.5 L 1126 460.5 L 1122.5 454 Z " /><path fill="rgb(140,90,89)" stroke="rgb(140,90,89)" stroke-width="1" opacity="1" d="M 28.5 456 L 29 460.5 L 28 460.5 L 28.5 456 Z " /><path fill="rgb(140,90,89)" stroke="rgb(140,90,89)" stroke-width="1" opacity="1" d="M 590.5 456 L 597 456.5 L 590.5 457 L 590.5 456 Z " /><path fill="rgb(140,90,89)" stroke="rgb(140,90,89)" stroke-width="1" opacity="1" d="M 163.5 459 L 164 464 L 161 463.5 L 163 463 L 163.5 459 Z " /><path fill="rgb(140,90,89)" stroke="rgb(140,90,89)" stroke-width="1" opacity="1" d="M 27.5 462 L 27 463.5 L 26.5 466 L 26 463.5 L 27.5 462 Z " /><path fill="rgb(140,90,89)" stroke="rgb(140,90,89)" stroke-width="1" opacity="1" d="M 1127.5 462 L 1130 465.5 L 1129 465.5 Q 1129.7 462.9 1127 464 L 1127.5 462 Z " /><path fill="rgb(140,90,89)" stroke="rgb(140,90,89)" stroke-width="1" opacity="1" d="M 1130.5 467 L 1133 471.5 L 1132 471.5 L 1130.5 467 Z " /><path fill="rgb(140,90,89)" stroke="rgb(140,90,89)" stroke-width="1" opacity="1" d="M 25.5 468 L 26 470.5 Q 22.7 472.2 23.5 478 L 23 472.5 L 25.5 468 Z " /><path fill="rgb(140,90,89)" stroke="rgb(140,90,89)" stroke-width="1" opacity="1" d="M 159.5 468 L 160 471.5 L 159 471.5 L 159.5 468 Z " /><path fill="rgb(140,90,89)" stroke="rgb(140,90,89)" stroke-width="1" opacity="1" d="M 1133.5 473 L 1138 482.5 L 1137 482.5 L 1133 474.5 L 1133.5 473 Z " /><path fill="rgb(140,90,89)" stroke="rgb(140,90,89)" stroke-width="1" opacity="1" d="M 1052.5 475 L 1053.5 477 L 1052.5 475 Z " /><path fill="rgb(140,90,89)" stroke="rgb(140,90,89)" stroke-width="1" opacity="1" d="M 1054.5 478 L 1053.5 480 L 1054.5 478 Z " /><path fill="rgb(140,90,89)" stroke="rgb(140,90,89)" stroke-width="1" opacity="1" d="M 22.5 479 L 23 480.5 Q 19.3 482.2 21 489.5 L 18.5 492 L 20 489.5 Q 18.5 481.5 22.5 479 Z " /><path fill="rgb(140,90,89)" stroke="rgb(140,90,89)" stroke-width="1" opacity="1" d="M 155.5 480 L 156 485.5 L 155 485.5 L 155.5 480 Z " /><path fill="rgb(140,90,89)" stroke="rgb(140,90,89)" stroke-width="1" opacity="1" d="M 1055.5 480 L 1069 505.5 L 1068 505.5 L 1055 481.5 L 1055.5 480 Z " /><path fill="rgb(140,90,89)" stroke="rgb(140,90,89)" stroke-width="1" opacity="1" d="M 91.5 481 L 92 483.5 L 86.5 503 L 86 499.5 L 91.5 481 Z " /><path fill="rgb(140,90,89)" stroke="rgb(140,90,89)" stroke-width="1" opacity="1" d="M 1138.5 484 L 1139.5 486 L 1138.5 484 Z " /><path fill="rgb(140,90,89)" stroke="rgb(140,90,89)" stroke-width="1" opacity="1" d="M 1140.5 487 L 1143 492.5 L 1141 491.5 L 1140.5 487 Z " /><path fill="rgb(140,90,89)" stroke="rgb(140,90,89)" stroke-width="1" opacity="1" d="M 1143.5 494 L 1149 506.5 L 1148 506.5 L 1143 496.5 L 1143.5 494 Z " /><path fill="rgb(140,90,89)" stroke="rgb(140,90,89)" stroke-width="1" opacity="1" d="M 17.5 495 L 18 500.5 Q 15.3 501.8 15.5 506 L 15 502.5 Q 18.3 500.8 17.5 495 Z " /><path fill="rgb(140,90,89)" stroke="rgb(140,90,89)" stroke-width="1" opacity="1" d="M 760.5 496 L 764 496.5 L 760.5 497 L 760.5 496 Z " /><path fill="rgb(140,90,89)" stroke="rgb(140,90,89)" stroke-width="1" opacity="1" d="M 497.5 500 L 499 500.5 L 497 501 L 496.5 503 L 496 501.5 L 497.5 500 Z " /><path fill="rgb(140,90,89)" stroke="rgb(140,90,89)" stroke-width="1" opacity="1" d="M 149.5 502 L 150 505.5 L 149 505.5 L 149.5 502 Z " /><path fill="rgb(140,90,89)" stroke="rgb(140,90,89)" stroke-width="1" opacity="1" d="M 85.5 504 L 86 506.5 L 85 506.5 L 85.5 504 Z " /><path fill="rgb(140,90,89)" stroke="rgb(140,90,89)" stroke-width="1" opacity="1" d="M 492 504 L 494 504.5 L 490 507.5 Q 489.3 504.9 492 506 L 492 504 Z " /><path fill="rgb(140,90,89)" stroke="rgb(140,90,89)" stroke-width="1" opacity="1" d="M 1069.5 507 L 1082 532.5 L 1081 532.5 L 1069.5 507 Z " /><path fill="rgb(140,90,89)" stroke="rgb(140,90,89)" stroke-width="1" opacity="1" d="M 84.5 508 L 85 512.5 L 79 537.5 L 79 544.5 L 77 550.5 L 76 565.5 L 74 573.5 L 73 607.5 L 72 608.5 L 72 649.5 L 73 650.5 L 73 665.5 L 74 666.5 L 75 686.5 L 74 686.5 L 72 655.5 L 71 654.5 L 71 611.5 L 70 610.5 L 72 599.5 L 72 582.5 L 73 581.5 L 73 572.5 L 75 564.5 L 76 548.5 L 78 543.5 L 79 531.5 L 84.5 508 Z " /><path fill="rgb(140,90,89)" stroke="rgb(140,90,89)" stroke-width="1" opacity="1" d="M 147.5 509 L 148 515.5 L 147 515.5 L 147.5 509 Z " /><path fill="rgb(140,90,89)" stroke="rgb(140,90,89)" stroke-width="1" opacity="1" d="M 1149.5 509 L 1152 515.5 L 1151 515.5 L 1149.5 509 Z " /><path fill="rgb(140,90,89)" stroke="rgb(140,90,89)" stroke-width="1" opacity="1" d="M 14.5 510 L 15 512.5 Q 11.2 515.7 13 524.5 L 10 530.5 L 10 541.5 L 7.5 546 L 7 544.5 L 9 541.5 L 9 530.5 L 12 524.5 L 12 515.5 L 14.5 510 Z " /><path fill="rgb(140,90,89)" stroke="rgb(140,90,89)" stroke-width="1" opacity="1" d="M 607.5 513 L 616 513.5 L 594.5 517 L 594.5 516 L 607.5 513 Z " /><path fill="rgb(140,90,89)" stroke="rgb(140,90,89)" stroke-width="1" opacity="1" d="M 635.5 513 L 657.5 514 L 670 517.5 L 667.5 518 L 648.5 514 L 635.5 514 L 635.5 513 Z " /><path fill="rgb(140,90,89)" stroke="rgb(140,90,89)" stroke-width="1" opacity="1" d="M 145.5 517 L 146 519.5 L 145 519.5 L 145.5 517 Z " /><path fill="rgb(140,90,89)" stroke="rgb(140,90,89)" stroke-width="1" opacity="1" d="M 590.5 517 L 593 517.5 L 579.5 522 L 579.5 521 L 590.5 517 Z " /><path fill="rgb(140,90,89)" stroke="rgb(140,90,89)" stroke-width="1" opacity="1" d="M 1152.5 517 L 1157 526.5 L 1155 525.5 L 1152.5 517 Z " /><path fill="rgb(140,90,89)" stroke="rgb(140,90,89)" stroke-width="1" opacity="1" d="M 671.5 518 L 683 521.5 L 681.5 522 L 671.5 519 L 671.5 518 Z " /><path fill="rgb(140,90,89)" stroke="rgb(140,90,89)" stroke-width="1" opacity="1" d="M 576.5 522 L 578 522.5 Q 544.5 536 524 562.5 Q 511.9 578.4 505 599.5 L 501 621.5 L 501 647.5 L 504 664.5 L 507 673.5 L 506 673.5 L 501 656.5 L 501 648.5 L 500 647.5 L 500 621.5 L 501 620.5 L 502 606.5 L 507 593.5 L 507 590.5 L 514 575.5 L 526 558 L 530 555.5 L 532 552.5 L 538 548 Q 536.9 545.3 539.5 546 L 542 542 L 545.5 541 L 558.5 531 L 576.5 522 Z " /><path fill="rgb(140,90,89)" stroke="rgb(140,90,89)" stroke-width="1" opacity="1" d="M 684.5 522 L 690 524.5 L 688.5 525 L 684.5 523 L 684.5 522 Z " /><path fill="rgb(140,90,89)" stroke="rgb(140,90,89)" stroke-width="1" opacity="1" d="M 143.5 525 L 144 531.5 L 143 531.5 L 143.5 525 Z " /><path fill="rgb(140,90,89)" stroke="rgb(140,90,89)" stroke-width="1" opacity="1" d="M 691.5 525 Q 708.9 532.1 722 543.5 Q 721.3 545.8 723.5 545 Q 745.5 562.5 756 591.5 L 755 591.5 Q 747.4 571.4 735 557 L 733 557 L 733 555 Q 730.3 556.1 731 553.5 L 714.5 539 L 698.5 529 L 692.5 527 L 691.5 525 Z " /><path fill="rgb(140,90,89)" stroke="rgb(140,90,89)" stroke-width="1" opacity="1" d="M 1157.5 528 L 1160 535.5 L 1159 535.5 L 1157 531.5 L 1157.5 528 Z " /><path fill="rgb(140,90,89)" stroke="rgb(140,90,89)" stroke-width="1" opacity="1" d="M 141.5 533 L 142 535.5 L 141 535.5 L 141.5 533 Z " /><path fill="rgb(140,90,89)" stroke="rgb(140,90,89)" stroke-width="1" opacity="1" d="M 1082.5 534 L 1091 556.5 L 1090 556.5 L 1082.5 534 Z " /><path fill="rgb(140,90,89)" stroke="rgb(140,90,89)" stroke-width="1" opacity="1" d="M 1015.5 536 L 1024 553.5 L 1022 552.5 L 1015 537.5 L 1015.5 536 Z " /><path fill="rgb(140,90,89)" stroke="rgb(140,90,89)" stroke-width="1" opacity="1" d="M 1160.5 538 Q 1163.8 539.7 1163 545.5 L 1162 545.5 L 1162 541.5 Q 1159 540.5 1160.5 538 Z " /><path fill="rgb(140,90,89)" stroke="rgb(140,90,89)" stroke-width="1" opacity="1" d="M 1163.5 547 L 1165 549.5 L 1163 548.5 L 1163.5 547 Z " /><path fill="rgb(140,90,89)" stroke="rgb(140,90,89)" stroke-width="1" opacity="1" d="M 456.5 548 L 457 550.5 L 456 550.5 L 456.5 548 Z " /><path fill="rgb(140,90,89)" stroke="rgb(140,90,89)" stroke-width="1" opacity="1" d="M 6.5 550 L 7 563.5 L 6 563.5 L 6.5 550 Z " /><path fill="rgb(140,90,89)" stroke="rgb(140,90,89)" stroke-width="1" opacity="1" d="M 1165.5 551 L 1168 561.5 L 1167 561.5 L 1165 556.5 L 1165.5 551 Z " /><path fill="rgb(140,90,89)" stroke="rgb(140,90,89)" stroke-width="1" opacity="1" d="M 1024.5 555 L 1032 571.5 L 1041 602.5 L 1040 602.5 L 1031 571.5 L 1024 556.5 L 1024.5 555 Z " /><path fill="rgb(140,90,89)" stroke="rgb(140,90,89)" stroke-width="1" opacity="1" d="M 137.5 556 L 138 567.5 L 137 567.5 L 137.5 556 Z " /><path fill="rgb(140,90,89)" stroke="rgb(140,90,89)" stroke-width="1" opacity="1" d="M 1091.5 558 L 1097 574.5 L 1096 574.5 L 1093 567.5 L 1093 565.5 L 1091.5 558 Z " /><path fill="rgb(140,90,89)" stroke="rgb(140,90,89)" stroke-width="1" opacity="1" d="M 1168.5 564 L 1171 573.5 L 1170 573.5 Q 1170.6 568.9 1168 567.5 L 1168.5 564 Z " /><path fill="rgb(140,90,89)" stroke="rgb(140,90,89)" stroke-width="1" opacity="1" d="M 5.5 565 L 6 566.5 L 5 567.5 L 4.5 586 L 4 567.5 L 5.5 565 Z " /><path fill="rgb(140,90,89)" stroke="rgb(140,90,89)" stroke-width="1" opacity="1" d="M 1171.5 575 L 1174 581.5 L 1174 587.5 L 1173 587.5 L 1173 581.5 Q 1169.9 579.5 1171.5 575 Z " /><path fill="rgb(140,90,89)" stroke="rgb(140,90,89)" stroke-width="1" opacity="1" d="M 1097.5 576 L 1100 581.5 L 1107 610.5 L 1110 631.5 L 1109 631.5 L 1105 606.5 L 1097.5 576 Z " /><path fill="rgb(140,90,89)" stroke="rgb(140,90,89)" stroke-width="1" opacity="1" d="M 135.5 578 L 136 583.5 L 135 583.5 L 135.5 578 Z " /><path fill="rgb(140,90,89)" stroke="rgb(140,90,89)" stroke-width="1" opacity="1" d="M 1174.5 589 L 1177 594.5 L 1177 602.5 Q 1179.6 603.9 1179 608.5 L 1178 608.5 Q 1178.6 603.9 1176 602.5 L 1176 594.5 Q 1173 592.7 1174.5 589 Z " /><path fill="rgb(140,90,89)" stroke="rgb(140,90,89)" stroke-width="1" opacity="1" d="M 756.5 593 Q 761.2 601.3 762 613.5 L 761 613.5 L 756.5 593 Z " /><path fill="rgb(140,90,89)" stroke="rgb(140,90,89)" stroke-width="1" opacity="1" d="M 3.5 598 L 4 605.5 L 3 605.5 L 3.5 598 Z " /><path fill="rgb(140,90,89)" stroke="rgb(140,90,89)" stroke-width="1" opacity="1" d="M 133.5 603 L 134 607.5 L 133 607.5 L 133.5 603 Z " /><path fill="rgb(140,90,89)" stroke="rgb(140,90,89)" stroke-width="1" opacity="1" d="M 1041.5 604 L 1042 606.5 L 1041 606.5 L 1041.5 604 Z " /><path fill="rgb(140,90,89)" stroke="rgb(140,90,89)" stroke-width="1" opacity="1" d="M 436.5 606 L 437 609.5 L 436 609.5 L 436.5 606 Z " /><path fill="rgb(140,90,89)" stroke="rgb(140,90,89)" stroke-width="1" opacity="1" d="M 2.5 607 L 3 612.5 L 2 612.5 L 2.5 607 Z " /><path fill="rgb(140,90,89)" stroke="rgb(140,90,89)" stroke-width="1" opacity="1" d="M 1042.5 608 L 1045 618.5 L 1044 618.5 L 1042.5 608 Z " /><path fill="rgb(140,90,89)" stroke="rgb(140,90,89)" stroke-width="1" opacity="1" d="M 1179.5 611 Q 1179 617 1182 619.5 L 1182 625.5 L 1181 625.5 Q 1182.2 618.8 1179 616.5 L 1179.5 611 Z " /><path fill="rgb(140,90,89)" stroke="rgb(140,90,89)" stroke-width="1" opacity="1" d="M 1.5 616 L 2 629.5 L 1 629.5 L 1.5 616 Z " /><path fill="rgb(140,90,89)" stroke="rgb(140,90,89)" stroke-width="1" opacity="1" d="M 133.5 616 L 134 645.5 L 133 645.5 L 133.5 616 Z " /><path fill="rgb(140,90,89)" stroke="rgb(140,90,89)" stroke-width="1" opacity="1" d="M 762.5 616 L 764 621.5 L 764 647.5 L 762.5 655 L 762 648.5 L 763 647.5 L 763 621.5 Q 760.6 620.2 762.5 616 Z " /><path fill="rgb(140,90,89)" stroke="rgb(140,90,89)" stroke-width="1" opacity="1" d="M 825.5 616 L 827 622.5 L 827 644.5 L 825.5 653 L 825 643.5 L 826 642.5 L 826 622.5 Q 823.4 620.9 825.5 616 Z " /><path fill="rgb(140,90,89)" stroke="rgb(140,90,89)" stroke-width="1" opacity="1" d="M 1045.5 620 L 1050 640.5 L 1051 653.5 L 1050 653.5 L 1049 640.5 L 1045 623.5 L 1045.5 620 Z " /><path fill="rgb(140,90,89)" stroke="rgb(140,90,89)" stroke-width="1" opacity="1" d="M 1182.5 629 L 1184 635.5 L 1183 635.5 L 1182.5 629 Z " /><path fill="rgb(140,90,89)" stroke="rgb(140,90,89)" stroke-width="1" opacity="1" d="M 1.5 632 L 2 634.5 L 1 634.5 L 1.5 632 Z " /><path fill="rgb(140,90,89)" stroke="rgb(140,90,89)" stroke-width="1" opacity="1" d="M 1110.5 633 L 1113 645.5 L 1113 654.5 L 1112 654.5 L 1110.5 633 Z " /><path fill="rgb(140,90,89)" stroke="rgb(140,90,89)" stroke-width="1" opacity="1" d="M 2.5 636 L 4 658.5 L 3 658.5 L 2.5 636 Z " /><path fill="rgb(140,90,89)" stroke="rgb(140,90,89)" stroke-width="1" opacity="1" d="M 1184.5 637 L 1185 652.5 L 1184 652.5 L 1184.5 637 Z " /><path fill="rgb(140,90,89)" stroke="rgb(140,90,89)" stroke-width="1" opacity="1" d="M 824.5 654 L 825 659.5 L 824 659.5 L 824.5 654 Z " /><path fill="rgb(140,90,89)" stroke="rgb(140,90,89)" stroke-width="1" opacity="1" d="M 761.5 656 L 762 659.5 L 756 679.5 Q 750.3 685.3 748 694.5 Q 739.2 710.2 726.5 722 L 724 723.5 Q 724.8 725.8 722.5 725 L 705.5 738 L 683.5 749 L 664.5 755 L 650.5 756 L 650.5 755 L 656.5 755 L 671.5 752 L 702.5 738 Q 721.4 727.4 735 711.5 L 752 684.5 L 758 670.5 L 761.5 656 Z " /><path fill="rgb(140,90,89)" stroke="rgb(140,90,89)" stroke-width="1" opacity="1" d="M 1051.5 656 L 1052 666.5 L 1053 667.5 L 1053 680.5 L 1052 680.5 L 1051.5 656 Z " /><path fill="rgb(140,90,89)" stroke="rgb(140,90,89)" stroke-width="1" opacity="1" d="M 1113.5 656 L 1114 665.5 L 1113 665.5 L 1113.5 656 Z " /><path fill="rgb(140,90,89)" stroke="rgb(140,90,89)" stroke-width="1" opacity="1" d="M 1185.5 656 L 1187 665.5 L 1186 665.5 L 1185.5 656 Z " /><path fill="rgb(140,90,89)" stroke="rgb(140,90,89)" stroke-width="1" opacity="1" d="M 823.5 661 L 824 667.5 L 820.5 681 L 820 677.5 L 822 672.5 L 823.5 661 Z " /><path fill="rgb(140,90,89)" stroke="rgb(140,90,89)" stroke-width="1" opacity="1" d="M 4.5 671 L 5 682.5 L 7 685.5 L 7 703.5 L 6 703.5 L 6 685.5 L 4 682.5 L 4.5 671 Z " /><path fill="rgb(140,90,89)" stroke="rgb(140,90,89)" stroke-width="1" opacity="1" d="M 1114.5 672 L 1115 685.5 L 1114 685.5 L 1114.5 672 Z " /><path fill="rgb(140,90,89)" stroke="rgb(140,90,89)" stroke-width="1" opacity="1" d="M 1187.5 672 L 1188 726.5 L 1187 726.5 L 1187.5 672 Z " /><path fill="rgb(140,90,89)" stroke="rgb(140,90,89)" stroke-width="1" opacity="1" d="M 507.5 675 Q 517.1 701.9 535.5 720 Q 552.5 736.5 575.5 747 L 597.5 754 L 609.5 755 L 610.5 756 L 626 756.5 L 610.5 757 L 588.5 753 L 561.5 741 Q 542.4 729.6 528 713.5 Q 513.6 697.3 507.5 675 Z " /><path fill="rgb(140,90,89)" stroke="rgb(140,90,89)" stroke-width="1" opacity="1" d="M 137.5 680 L 138 684.5 L 137 684.5 L 137.5 680 Z " /><path fill="rgb(140,90,89)" stroke="rgb(140,90,89)" stroke-width="1" opacity="1" d="M 819.5 682 L 820 684.5 L 814.5 698 L 814 695.5 L 819.5 682 Z " /><path fill="rgb(140,90,89)" stroke="rgb(140,90,89)" stroke-width="1" opacity="1" d="M 1053.5 682 L 1054 722.5 L 1053 723.5 L 1051.5 745 L 1051 734.5 L 1052 733.5 L 1052 723.5 L 1053 722.5 L 1053.5 682 Z " /><path fill="rgb(140,90,89)" stroke="rgb(140,90,89)" stroke-width="1" opacity="1" d="M 1115.5 687 L 1116 719.5 L 1115 719.5 L 1115.5 687 Z " /><path fill="rgb(140,90,89)" stroke="rgb(140,90,89)" stroke-width="1" opacity="1" d="M 75.5 688 L 79 711.5 L 78 711.5 L 75 695.5 L 75.5 688 Z " /><path fill="rgb(140,90,89)" stroke="rgb(140,90,89)" stroke-width="1" opacity="1" d="M 813.5 699 L 814 700.5 L 803 723.5 L 790 743 Q 787.3 741.9 788 744.5 L 763.5 770 Q 728.5 799 676.5 811 L 676.5 810 L 683.5 809 L 705.5 802 L 725.5 793 L 751.5 778 L 769 764 L 769 762 Q 771.7 763.1 771 760.5 L 777 755.5 L 779.5 752 Q 781.8 752.8 781 750.5 Q 801.9 729.4 813.5 699 Z " /><path fill="rgb(140,90,89)" stroke="rgb(140,90,89)" stroke-width="1" opacity="1" d="M 141.5 704 L 142 708.5 L 141 708.5 L 141.5 704 Z " /><path fill="rgb(140,90,89)" stroke="rgb(140,90,89)" stroke-width="1" opacity="1" d="M 7.5 705 L 9 708.5 L 8 708.5 L 7.5 705 Z " /><path fill="rgb(140,90,89)" stroke="rgb(140,90,89)" stroke-width="1" opacity="1" d="M 9.5 710 L 10 721.5 L 12 726.5 L 11 726.5 L 9 721.5 L 9.5 710 Z " /><path fill="rgb(140,90,89)" stroke="rgb(140,90,89)" stroke-width="1" opacity="1" d="M 79.5 713 L 90 759.5 L 89 759.5 L 85 741.5 L 83 737.5 L 79.5 713 Z " /><path fill="rgb(140,90,89)" stroke="rgb(140,90,89)" stroke-width="1" opacity="1" d="M 1114.5 722 L 1115 734.5 L 1114 735.5 L 1113.5 745 L 1113 735.5 L 1114 734.5 L 1114.5 722 Z " /><path fill="rgb(140,90,89)" stroke="rgb(140,90,89)" stroke-width="1" opacity="1" d="M 12.5 728 L 13 735.5 Q 15.6 736.9 15 741.5 L 14 741.5 Q 14.6 736.9 12 735.5 L 12.5 728 Z " /><path fill="rgb(140,90,89)" stroke="rgb(140,90,89)" stroke-width="1" opacity="1" d="M 1186.5 730 L 1187 734.5 L 1185.5 741 L 1185 735.5 L 1186.5 730 Z " /><path fill="rgb(140,90,89)" stroke="rgb(140,90,89)" stroke-width="1" opacity="1" d="M 1184.5 742 L 1185 756.5 L 1184 756.5 L 1184.5 742 Z " /><path fill="rgb(140,90,89)" stroke="rgb(140,90,89)" stroke-width="1" opacity="1" d="M 15.5 745 L 18 750.5 L 18 756.5 L 17 756.5 L 17 750.5 Q 14 748.7 15.5 745 Z " /><path fill="rgb(140,90,89)" stroke="rgb(140,90,89)" stroke-width="1" opacity="1" d="M 1050.5 746 L 1051 755.5 L 1050 756.5 L 1049 770.5 L 1046.5 779 L 1046 774.5 L 1049 763.5 L 1050.5 746 Z " /><path fill="rgb(140,90,89)" stroke="rgb(140,90,89)" stroke-width="1" opacity="1" d="M 1112.5 746 L 1113 754.5 L 1110.5 766 L 1110 760.5 L 1112.5 746 Z " /><path fill="rgb(140,90,89)" stroke="rgb(140,90,89)" stroke-width="1" opacity="1" d="M 633.5 756 L 648 756.5 L 633.5 757 L 633.5 756 Z " /><path fill="rgb(140,90,89)" stroke="rgb(140,90,89)" stroke-width="1" opacity="1" d="M 18.5 758 Q 22.3 760.3 21 767.5 L 20 767.5 L 20 761.5 Q 17 760.5 18.5 758 Z " /><path fill="rgb(140,90,89)" stroke="rgb(140,90,89)" stroke-width="1" opacity="1" d="M 1183.5 758 L 1184 759.5 L 1182.5 768 L 1182 760.5 L 1183.5 758 Z " /><path fill="rgb(140,90,89)" stroke="rgb(140,90,89)" stroke-width="1" opacity="1" d="M 90.5 761 L 107 807.5 L 106 807.5 L 96 782.5 L 96 779.5 L 90 763.5 L 90.5 761 Z " /><path fill="rgb(140,90,89)" stroke="rgb(140,90,89)" stroke-width="1" opacity="1" d="M 159.5 768 L 160 771.5 L 159 771.5 L 159.5 768 Z " /><path fill="rgb(140,90,89)" stroke="rgb(140,90,89)" stroke-width="1" opacity="1" d="M 1109.5 768 L 1110 771.5 L 1109 771.5 L 1109.5 768 Z " /><path fill="rgb(140,90,89)" stroke="rgb(140,90,89)" stroke-width="1" opacity="1" d="M 21.5 769 L 23 771.5 L 22 771.5 L 21.5 769 Z " /><path fill="rgb(140,90,89)" stroke="rgb(140,90,89)" stroke-width="1" opacity="1" d="M 1181.5 770 L 1182 777.5 Q 1179 780 1179.5 786 L 1179 780.5 Q 1182.4 777.4 1181.5 770 Z " /><path fill="rgb(140,90,89)" stroke="rgb(140,90,89)" stroke-width="1" opacity="1" d="M 1108.5 773 L 1109 777.5 L 1104.5 799 L 1104 795.5 L 1108.5 773 Z " /><path fill="rgb(140,90,89)" stroke="rgb(140,90,89)" stroke-width="1" opacity="1" d="M 23.5 774 L 26 786.5 L 25 786.5 Q 25.6 781.9 23 780.5 L 23.5 774 Z " /><path fill="rgb(140,90,89)" stroke="rgb(140,90,89)" stroke-width="1" opacity="1" d="M 1045.5 780 L 1046 784.5 L 1041.5 800 L 1041 797.5 L 1045.5 780 Z " /><path fill="rgb(140,90,89)" stroke="rgb(140,90,89)" stroke-width="1" opacity="1" d="M 165.5 784 L 166 786.5 L 165 786.5 L 165.5 784 Z " /><path fill="rgb(140,90,89)" stroke="rgb(140,90,89)" stroke-width="1" opacity="1" d="M 517.5 785 L 520 785.5 L 510.5 791 L 468 825 Q 469.1 827.7 466.5 827 L 219 1032 L 217 1035.5 L 233.5 1048 L 272.5 1070 L 312.5 1089 L 319.5 1091 L 321.5 1093 L 351 1103.5 L 348.5 1104 L 316.5 1092 L 314.5 1090 L 273.5 1072 L 234.5 1049 L 232.5 1049 L 216 1036.5 L 216 1034.5 L 225.5 1025 L 268.5 991 L 361.5 912 L 396 885 Q 394.9 882.3 397.5 883 L 430 857 Q 428.9 854.3 431.5 855 L 478.5 815 L 517.5 785 Z " /><path fill="rgb(140,90,89)" stroke="rgb(140,90,89)" stroke-width="1" opacity="1" d="M 521.5 786 L 555 802.5 L 553.5 803 L 524.5 789 L 521.5 786 Z " /><path fill="rgb(140,90,89)" stroke="rgb(140,90,89)" stroke-width="1" opacity="1" d="M 26.5 789 L 29 797.5 L 28 797.5 L 26.5 789 Z " /><path fill="rgb(140,90,89)" stroke="rgb(140,90,89)" stroke-width="1" opacity="1" d="M 1178.5 790 L 1179 794.5 Q 1175.2 797.7 1177 806.5 L 1174.5 811 L 1174 809.5 L 1176 806.5 L 1176 797.5 Q 1178.8 795.3 1178.5 790 Z " /><path fill="rgb(140,90,89)" stroke="rgb(140,90,89)" stroke-width="1" opacity="1" d="M 169.5 794 L 170 796.5 L 169 796.5 L 169.5 794 Z " /><path fill="rgb(140,90,89)" stroke="rgb(140,90,89)" stroke-width="1" opacity="1" d="M 29.5 799 Q 32.5 801 32 806.5 L 31 806.5 L 29.5 799 Z " /><path fill="rgb(140,90,89)" stroke="rgb(140,90,89)" stroke-width="1" opacity="1" d="M 1103.5 800 L 1104 802.5 L 1099.5 817 L 1099 814.5 L 1103.5 800 Z " /><path fill="rgb(140,90,89)" stroke="rgb(140,90,89)" stroke-width="1" opacity="1" d="M 1040.5 801 L 1041 804.5 L 1036.5 818 L 1036 815.5 L 1040.5 801 Z " /><path fill="rgb(140,90,89)" stroke="rgb(140,90,89)" stroke-width="1" opacity="1" d="M 556.5 803 L 567 806.5 L 564.5 807 L 556.5 804 L 556.5 803 Z " /><path fill="rgb(140,90,89)" stroke="rgb(140,90,89)" stroke-width="1" opacity="1" d="M 568.5 807 L 591 812.5 L 587.5 813 L 568.5 808 L 568.5 807 Z " /><path fill="rgb(140,90,89)" stroke="rgb(140,90,89)" stroke-width="1" opacity="1" d="M 32.5 808 L 34 810.5 L 33 810.5 L 32.5 808 Z " /><path fill="rgb(140,90,89)" stroke="rgb(140,90,89)" stroke-width="1" opacity="1" d="M 107.5 809 L 124 844.5 L 135 862.5 L 142 877.5 L 159 902 Q 161.7 900.9 161 903.5 L 157 900.5 L 144 882.5 L 127 852.5 L 111 820.5 L 107.5 809 Z " /><path fill="rgb(140,90,89)" stroke="rgb(140,90,89)" stroke-width="1" opacity="1" d="M 671.5 811 L 675 811.5 L 668.5 813 L 668.5 812 L 671.5 811 Z " /><path fill="rgb(140,90,89)" stroke="rgb(140,90,89)" stroke-width="1" opacity="1" d="M 34.5 812 L 37 820.5 L 36 820.5 Q 36.8 816.3 34 815.5 L 34.5 812 Z " /><path fill="rgb(140,90,89)" stroke="rgb(140,90,89)" stroke-width="1" opacity="1" d="M 1173.5 812 L 1174 818.5 L 1173 818.5 L 1173.5 812 Z " /><path fill="rgb(140,90,89)" stroke="rgb(140,90,89)" stroke-width="1" opacity="1" d="M 593.5 813 L 597 813.5 L 593.5 814 L 593.5 813 Z " /><path fill="rgb(140,90,89)" stroke="rgb(140,90,89)" stroke-width="1" opacity="1" d="M 662.5 813 L 666 813.5 L 662.5 814 L 662.5 813 Z " /><path fill="rgb(140,90,89)" stroke="rgb(140,90,89)" stroke-width="1" opacity="1" d="M 598.5 814 L 604 814.5 L 598.5 815 L 598.5 814 Z " /><path fill="rgb(140,90,89)" stroke="rgb(140,90,89)" stroke-width="1" opacity="1" d="M 653.5 814 L 661 814.5 L 646.5 816 L 645.5 817 L 614.5 817 L 613.5 816 L 605 815.5 L 614.5 815 L 615.5 816 L 645.5 816 L 653.5 814 Z " /><path fill="rgb(140,90,89)" stroke="rgb(140,90,89)" stroke-width="1" opacity="1" d="M 1098.5 818 L 1099 820.5 L 1085 860.5 L 1058 917.5 L 1032 958.5 L 997 1004 Q 994.3 1002.9 995 1005.5 L 953.5 1046 L 932 1063 Q 933.1 1065.7 930.5 1065 L 909.5 1082 L 862.5 1113 L 815.5 1137 L 772.5 1155 L 772.5 1154 Q 823.9 1134.4 868.5 1108 L 921.5 1072 Q 933.1 1059.8 947 1051 Q 945.9 1048.3 948.5 1049 L 957 1042 L 959.5 1038 L 966 1032.5 Q 965.3 1030.3 967.5 1031 L 984.5 1014 L 986 1014 L 986 1012.5 L 1008 988.5 Q 1017.3 972.3 1030 959.5 L 1058 915.5 L 1081 867.5 L 1098.5 818 Z " /><path fill="rgb(140,90,89)" stroke="rgb(140,90,89)" stroke-width="1" opacity="1" d="M 1172.5 820 L 1172 821.5 L 1171.5 824 L 1171 821.5 L 1172.5 820 Z " /><path fill="rgb(140,90,89)" stroke="rgb(140,90,89)" stroke-width="1" opacity="1" d="M 37.5 822 L 45 839.5 L 44 839.5 L 39 829.5 L 37.5 822 Z " /><path fill="rgb(140,90,89)" stroke="rgb(140,90,89)" stroke-width="1" opacity="1" d="M 1033.5 825 L 1034 827.5 L 1021 860.5 L 1021.5 862 Q 1019.3 861.3 1020 863.5 L 1014.5 874 L 1014 872.5 L 1019 863.5 L 1033.5 825 Z " /><path fill="rgb(140,90,89)" stroke="rgb(140,90,89)" stroke-width="1" opacity="1" d="M 1170.5 825 L 1171 829.5 L 1168.5 836 L 1168 832.5 Q 1170.8 830.3 1170.5 825 Z " /><path fill="rgb(140,90,89)" stroke="rgb(140,90,89)" stroke-width="1" opacity="1" d="M 1167.5 838 L 1168 840.5 L 1166 841.5 L 1167.5 838 Z " /><path fill="rgb(140,90,89)" stroke="rgb(140,90,89)" stroke-width="1" opacity="1" d="M 45.5 842 L 48 848.5 L 47 848.5 L 45.5 842 Z " /><path fill="rgb(140,90,89)" stroke="rgb(140,90,89)" stroke-width="1" opacity="1" d="M 1165.5 843 L 1166 847.5 L 1165 847.5 L 1165.5 843 Z " /><path fill="rgb(140,90,89)" stroke="rgb(140,90,89)" stroke-width="1" opacity="1" d="M 1164.5 849 L 1165 850.5 L 1163 851.5 L 1164.5 849 Z " /><path fill="rgb(140,90,89)" stroke="rgb(140,90,89)" stroke-width="1" opacity="1" d="M 48.5 850 L 53 858.5 L 51 857.5 L 48.5 850 Z " /><path fill="rgb(140,90,89)" stroke="rgb(140,90,89)" stroke-width="1" opacity="1" d="M 1162.5 853 L 1163 857.5 L 1160.5 862 L 1160 859.5 Q 1163.1 858 1162.5 853 Z " /><path fill="rgb(140,90,89)" stroke="rgb(140,90,89)" stroke-width="1" opacity="1" d="M 336 856 L 338 856.5 L 336 857.5 L 336 856 Z " /><path fill="rgb(140,90,89)" stroke="rgb(140,90,89)" stroke-width="1" opacity="1" d="M 53.5 860 L 56 865.5 L 55 865.5 Q 52 863.7 53.5 860 Z " /><path fill="rgb(140,90,89)" stroke="rgb(140,90,89)" stroke-width="1" opacity="1" d="M 1159.5 863 L 1160 865.5 Q 1157.3 866.8 1157.5 871 L 1157 867.5 L 1159.5 863 Z " /><path fill="rgb(140,90,89)" stroke="rgb(140,90,89)" stroke-width="1" opacity="1" d="M 56.5 867 L 59 871.5 L 58 871.5 L 56.5 867 Z " /><path fill="rgb(140,90,89)" stroke="rgb(140,90,89)" stroke-width="1" opacity="1" d="M 1156.5 872 L 1157 873.5 Q 1154.3 874.8 1154.5 879 L 1154 875.5 L 1156.5 872 Z " /><path fill="rgb(140,90,89)" stroke="rgb(140,90,89)" stroke-width="1" opacity="1" d="M 59.5 873 L 63 879.5 L 61 878.5 L 59.5 873 Z " /><path fill="rgb(140,90,89)" stroke="rgb(140,90,89)" stroke-width="1" opacity="1" d="M 1013.5 875 L 1014 876.5 Q 999 907.3 980 933 Q 977.3 931.9 978 934.5 L 949 969.5 L 915.5 1005 L 870.5 1041 L 822.5 1070 L 792.5 1086 L 770.5 1096 L 765.5 1097 L 761.5 1100 L 732.5 1109 L 732.5 1108 L 755.5 1101 L 785.5 1088 L 816.5 1072 L 853.5 1050 Q 897.4 1022.9 932 986.5 L 987 920.5 L 1013.5 875 Z " /><path fill="rgb(140,90,89)" stroke="rgb(140,90,89)" stroke-width="1" opacity="1" d="M 1153.5 880 L 1152 882.5 L 1152 885.5 L 1149.5 890 L 1149 887.5 L 1153.5 880 Z " /><path fill="rgb(140,90,89)" stroke="rgb(140,90,89)" stroke-width="1" opacity="1" d="M 63.5 881 L 67 887.5 L 66 887.5 L 63.5 881 Z " /><path fill="rgb(140,90,89)" stroke="rgb(140,90,89)" stroke-width="1" opacity="1" d="M 67.5 889 L 70 891.5 L 73 900 Q 75.7 898.9 75 901.5 L 87 921.5 L 108 950.5 L 105 948.5 L 105 946.5 L 97 937.5 L 80 912.5 L 67.5 889 Z " /><path fill="rgb(140,90,89)" stroke="rgb(140,90,89)" stroke-width="1" opacity="1" d="M 1148.5 891 L 1149 892.5 Q 1146.3 893.8 1146.5 898 L 1146 894.5 L 1148.5 891 Z " /><path fill="rgb(140,90,89)" stroke="rgb(140,90,89)" stroke-width="1" opacity="1" d="M 288 896 L 290 896.5 L 288 897.5 L 288 896 Z " /><path fill="rgb(140,90,89)" stroke="rgb(140,90,89)" stroke-width="1" opacity="1" d="M 1145.5 899 L 1144.5 901 L 1145.5 899 Z " /><path fill="rgb(140,90,89)" stroke="rgb(140,90,89)" stroke-width="1" opacity="1" d="M 1143.5 902 L 1144 904.5 L 1141 906.5 L 1143.5 902 Z " /><path fill="rgb(140,90,89)" stroke="rgb(140,90,89)" stroke-width="1" opacity="1" d="M 161.5 905 Q 163.8 904.3 163 906.5 L 192.5 943 Q 194.8 942.3 194 944.5 L 209 961.5 L 209 965.5 L 193.5 980 L 187 984 Q 188.1 986.7 185.5 986 L 182 988 Q 183.1 990.7 180.5 990 L 145.5 1018 L 129.5 1033 L 120 1039 Q 119.3 1042.8 122.5 1044 Q 162.5 1075.5 207.5 1102 L 258.5 1129 L 291.5 1144 L 296.5 1145 L 298.5 1147 L 319 1154.5 L 317.5 1155 L 281.5 1141 L 212.5 1106 Q 161.8 1077.2 118 1041.5 L 122.5 1036 L 134 1028 Q 132.9 1025.3 135.5 1026 L 208 965.5 Q 208.6 960.9 206 959.5 L 173 921.5 L 161.5 905 Z " /><path fill="rgb(140,90,89)" stroke="rgb(140,90,89)" stroke-width="1" opacity="1" d="M 1140.5 908 L 1141 910.5 L 1138.5 915 L 1138 912.5 L 1140.5 908 Z " /><path fill="rgb(140,90,89)" stroke="rgb(140,90,89)" stroke-width="1" opacity="1" d="M 1137.5 916 L 1138 917.5 L 1122.5 947 L 1123 945.5 L 1137.5 916 Z " /><path fill="rgb(140,90,89)" stroke="rgb(140,90,89)" stroke-width="1" opacity="1" d="M 1121.5 948 L 1122 949.5 L 1116.5 958 L 1116 956.5 L 1121.5 948 Z " /><path fill="rgb(140,90,89)" stroke="rgb(140,90,89)" stroke-width="1" opacity="1" d="M 108.5 952 L 110 954.5 L 109 954.5 L 108.5 952 Z " /><path fill="rgb(140,90,89)" stroke="rgb(140,90,89)" stroke-width="1" opacity="1" d="M 109.5 957 L 110 958.5 L 88.5 978 L 88 976 L 100.5 967 L 109 958.5 L 109.5 957 Z " /><path fill="rgb(140,90,89)" stroke="rgb(140,90,89)" stroke-width="1" opacity="1" d="M 1115.5 959 L 1114 961.5 L 1108.5 970 L 1110 967.5 L 1115.5 959 Z " /><path fill="rgb(140,90,89)" stroke="rgb(140,90,89)" stroke-width="1" opacity="1" d="M 1107.5 971 L 1107 972.5 L 1103 980.5 L 1097.5 987 L 1099 984.5 L 1107.5 971 Z " /><path fill="rgb(140,90,89)" stroke="rgb(140,90,89)" stroke-width="1" opacity="1" d="M 86.5 978 L 81.5 984 L 75 988 Q 76.1 990.7 73.5 990 L 68 994.5 L 86.5 978 Z " /><path fill="rgb(140,90,89)" stroke="rgb(140,90,89)" stroke-width="1" opacity="1" d="M 1096.5 988 L 1096 989.5 L 1078.5 1013 L 1080 1010.5 L 1086 1001 Q 1088.7 1002.1 1088 999.5 L 1096.5 988 Z " /><path fill="rgb(140,90,89)" stroke="rgb(140,90,89)" stroke-width="1" opacity="1" d="M 66.5 995 L 64.5 998 L 32.5 1023 L 20 1035.5 Q 20.7 1041.3 24.5 1044 Q 26.8 1043.3 26 1045.5 Q 39.2 1053.8 48.5 1066 L 50 1066 Q 48.9 1068.7 51.5 1068 L 70.5 1085 L 83 1094 Q 81.9 1096.7 84.5 1096 L 87.5 1100 L 51.5 1070 L 21 1041.5 Q 18.4 1040.1 19 1035.5 L 25 1028 L 42 1016 Q 40.9 1013.3 43.5 1014 L 66.5 995 Z " /><path fill="rgb(140,90,89)" stroke="rgb(140,90,89)" stroke-width="1" opacity="1" d="M 1077.5 1014 L 1075 1017.5 L 1072.5 1021 L 1073 1019.5 L 1077.5 1014 Z " /><path fill="rgb(140,90,89)" stroke="rgb(140,90,89)" stroke-width="1" opacity="1" d="M 1071.5 1022 L 1068 1026.5 L 1061.5 1035 L 1062 1033.5 L 1071.5 1022 Z " /><path fill="rgb(140,90,89)" stroke="rgb(140,90,89)" stroke-width="1" opacity="1" d="M 1058.5 1038 L 1048 1049.5 Q 1048.8 1051.8 1046.5 1051 L 1021.5 1078 L 1006.5 1092 L 1006 1090.5 L 1022.5 1075 L 1024 1075 L 1025.5 1072 Q 1027.8 1072.8 1027 1070.5 L 1058.5 1038 Z " /><path fill="rgb(140,90,89)" stroke="rgb(140,90,89)" stroke-width="1" opacity="1" d="M 1004.5 1092 L 1004 1093.5 Q 1004.8 1095.8 1002.5 1095 L 993.5 1104 L 963.5 1127 L 964.5 1125 L 971 1121 Q 969.9 1118.3 972.5 1119 L 985 1110 Q 983.9 1107.3 986.5 1108 L 1004.5 1092 Z " /><path fill="rgb(140,90,89)" stroke="rgb(140,90,89)" stroke-width="1" opacity="1" d="M 89.5 1100 L 120 1123.5 L 117.5 1122 L 114.5 1120 L 103.5 1111 L 97.5 1108 L 89.5 1100 Z " /><path fill="rgb(140,90,89)" stroke="rgb(140,90,89)" stroke-width="1" opacity="1" d="M 352.5 1104 L 400.5 1119 L 433.5 1127 L 461 1131.5 L 455.5 1132 L 454.5 1131 L 437.5 1129 L 400.5 1120 L 369.5 1110 L 359.5 1108 L 352.5 1105 L 352.5 1104 Z " /><path fill="rgb(140,90,89)" stroke="rgb(140,90,89)" stroke-width="1" opacity="1" d="M 725.5 1110 L 728 1110.5 L 712.5 1115 L 712.5 1114 L 725.5 1110 Z " /><path fill="rgb(140,90,89)" stroke="rgb(140,90,89)" stroke-width="1" opacity="1" d="M 708.5 1115 L 711 1115.5 L 708.5 1116 L 708.5 1115 Z " /><path fill="rgb(140,90,89)" stroke="rgb(140,90,89)" stroke-width="1" opacity="1" d="M 704.5 1116 L 707 1116.5 Q 700 1120.5 689.5 1121 L 689.5 1120 L 704.5 1116 Z " /><path fill="rgb(140,90,89)" stroke="rgb(140,90,89)" stroke-width="1" opacity="1" d="M 686.5 1121 L 688 1121.5 L 674.5 1126 L 664.5 1127 L 664.5 1126 L 686.5 1121 Z " /><path fill="rgb(140,90,89)" stroke="rgb(140,90,89)" stroke-width="1" opacity="1" d="M 121.5 1124 L 131.5 1130 L 136 1134.5 L 131.5 1131 L 121.5 1125 L 121.5 1124 Z " /><path fill="rgb(140,90,89)" stroke="rgb(140,90,89)" stroke-width="1" opacity="1" d="M 659.5 1127 L 663 1127.5 L 648.5 1131 L 646.5 1131 L 635.5 1132 L 635.5 1131 L 653.5 1129 L 659.5 1127 Z " /><path fill="rgb(140,90,89)" stroke="rgb(140,90,89)" stroke-width="1" opacity="1" d="M 961.5 1127 L 956.5 1133 L 950.5 1136 L 942.5 1143 L 944.5 1140 L 961.5 1127 Z " /><path fill="rgb(140,90,89)" stroke="rgb(140,90,89)" stroke-width="1" opacity="1" d="M 462.5 1132 L 486.5 1134 L 487.5 1135 L 513 1136.5 L 497.5 1137 L 496.5 1136 L 468.5 1134 Q 467.3 1131.8 462.5 1133 L 462.5 1132 Z " /><path fill="rgb(140,90,89)" stroke="rgb(140,90,89)" stroke-width="1" opacity="1" d="M 627.5 1132 L 634 1132.5 L 619.5 1134 L 619.5 1133 Q 625.7 1134.8 627.5 1132 Z " /><path fill="rgb(140,90,89)" stroke="rgb(140,90,89)" stroke-width="1" opacity="1" d="M 608.5 1134 L 618 1134.5 L 609.5 1136 L 597.5 1136 L 596.5 1137 L 579.5 1137 L 579.5 1136 L 607.5 1135 L 608.5 1134 Z " /><path fill="rgb(140,90,89)" stroke="rgb(140,90,89)" stroke-width="1" opacity="1" d="M 137.5 1135 L 146 1140.5 L 144.5 1141 L 137.5 1136 L 137.5 1135 Z " /><path fill="rgb(140,90,89)" stroke="rgb(140,90,89)" stroke-width="1" opacity="1" d="M 514.5 1137 L 536 1137.5 L 514.5 1138 L 514.5 1137 Z " /><path fill="rgb(140,90,89)" stroke="rgb(140,90,89)" stroke-width="1" opacity="1" d="M 562.5 1137 L 578 1137.5 L 562.5 1138 L 562.5 1137 Z " /><path fill="rgb(140,90,89)" stroke="rgb(140,90,89)" stroke-width="1" opacity="1" d="M 544.5 1138 L 554 1138.5 L 544.5 1139 L 544.5 1138 Z " /><path fill="rgb(140,90,89)" stroke="rgb(140,90,89)" stroke-width="1" opacity="1" d="M 147.5 1141 L 171 1156.5 L 168.5 1155 L 153.5 1147 L 147.5 1141 Z " /><path fill="rgb(140,90,89)" stroke="rgb(140,90,89)" stroke-width="1" opacity="1" d="M 939.5 1143 L 941 1143.5 L 933.5 1149 L 934.5 1147 L 939.5 1143 Z " /><path fill="rgb(140,90,89)" stroke="rgb(140,90,89)" stroke-width="1" opacity="1" d="M 931.5 1149 L 929.5 1152 L 925.5 1154 L 926.5 1152 L 931.5 1149 Z " /><path fill="rgb(140,90,89)" stroke="rgb(140,90,89)" stroke-width="1" opacity="1" d="M 923.5 1154 L 921.5 1157 L 923.5 1154 Z " /><path fill="rgb(140,90,89)" stroke="rgb(140,90,89)" stroke-width="1" opacity="1" d="M 769.5 1155 L 771 1155.5 L 766.5 1158 L 736.5 1167 L 736.5 1166 L 751.5 1162 L 769.5 1155 Z " /><path fill="rgb(140,90,89)" stroke="rgb(140,90,89)" stroke-width="1" opacity="1" d="M 172.5 1157 L 180.5 1162 L 185 1163 Q 183.8 1166 187.5 1165 L 191 1167.5 L 189.5 1167 L 175.5 1160 L 172.5 1157 Z " /><path fill="rgb(140,90,89)" stroke="rgb(140,90,89)" stroke-width="1" opacity="1" d="M 326.5 1157 L 348 1163.5 L 345.5 1164 L 326.5 1158 L 326.5 1157 Z " /><path fill="rgb(140,90,89)" stroke="rgb(140,90,89)" stroke-width="1" opacity="1" d="M 918.5 1157 L 920 1157.5 L 910.5 1163 L 910.5 1162 L 918.5 1157 Z " /><path fill="rgb(140,90,89)" stroke="rgb(140,90,89)" stroke-width="1" opacity="1" d="M 908.5 1163 L 906.5 1166 L 891.5 1174 L 891.5 1173 L 908.5 1163 Z " /><path fill="rgb(140,90,89)" stroke="rgb(140,90,89)" stroke-width="1" opacity="1" d="M 349.5 1164 L 368 1169.5 L 365.5 1170 L 349.5 1165 L 349.5 1164 Z " /><path fill="rgb(140,90,89)" stroke="rgb(140,90,89)" stroke-width="1" opacity="1" d="M 732.5 1167 L 735 1167.5 L 718.5 1172 L 718.5 1171 L 732.5 1167 Z " /><path fill="rgb(140,90,89)" stroke="rgb(140,90,89)" stroke-width="1" opacity="1" d="M 192.5 1168 L 196 1170.5 L 194.5 1170 L 192.5 1168 Z " /><path fill="rgb(140,90,89)" stroke="rgb(140,90,89)" stroke-width="1" opacity="1" d="M 369.5 1170 L 372 1170.5 L 369.5 1171 L 369.5 1170 Z " /><path fill="rgb(140,90,89)" stroke="rgb(140,90,89)" stroke-width="1" opacity="1" d="M 197.5 1171 L 198.5 1173 L 197.5 1171 Z " /><path fill="rgb(140,90,89)" stroke="rgb(140,90,89)" stroke-width="1" opacity="1" d="M 373.5 1171 L 420 1182.5 L 416.5 1183 L 379.5 1174 L 373.5 1172 L 373.5 1171 Z " /><path fill="rgb(140,90,89)" stroke="rgb(140,90,89)" stroke-width="1" opacity="1" d="M 709.5 1173 L 714 1173.5 L 694.5 1178 L 694.5 1177 L 709.5 1173 Z " /><path fill="rgb(140,90,89)" stroke="rgb(140,90,89)" stroke-width="1" opacity="1" d="M 203.5 1174 L 204.5 1176 L 203.5 1174 Z " /><path fill="rgb(140,90,89)" stroke="rgb(140,90,89)" stroke-width="1" opacity="1" d="M 889.5 1174 L 887.5 1177 L 883.5 1179 L 885.5 1176 L 889.5 1174 Z " /><path fill="rgb(140,90,89)" stroke="rgb(140,90,89)" stroke-width="1" opacity="1" d="M 206.5 1176 L 211 1178.5 L 209.5 1179 L 206.5 1176 Z " /><path fill="rgb(140,90,89)" stroke="rgb(140,90,89)" stroke-width="1" opacity="1" d="M 690.5 1178 L 693 1178.5 L 690.5 1179 L 690.5 1178 Z " /><path fill="rgb(140,90,89)" stroke="rgb(140,90,89)" stroke-width="1" opacity="1" d="M 212.5 1179 L 227 1186.5 L 225.5 1186 L 215.5 1182 L 212.5 1179 Z " /><path fill="rgb(140,90,89)" stroke="rgb(140,90,89)" stroke-width="1" opacity="1" d="M 685.5 1179 L 689 1179.5 L 671.5 1183 L 671.5 1182 L 685.5 1179 Z " /><path fill="rgb(140,90,89)" stroke="rgb(140,90,89)" stroke-width="1" opacity="1" d="M 880.5 1179 L 882 1179.5 L 877.5 1182 L 877.5 1181 L 880.5 1179 Z " /><path fill="rgb(140,90,89)" stroke="rgb(140,90,89)" stroke-width="1" opacity="1" d="M 875.5 1182 L 874.5 1184 L 875.5 1182 Z " /><path fill="rgb(140,90,89)" stroke="rgb(140,90,89)" stroke-width="1" opacity="1" d="M 422.5 1183 L 431 1184.5 L 426.5 1185 L 422.5 1184 L 422.5 1183 Z " /><path fill="rgb(140,90,89)" stroke="rgb(140,90,89)" stroke-width="1" opacity="1" d="M 667.5 1183 L 670 1183.5 L 667.5 1184 L 667.5 1183 Z " /><path fill="rgb(140,90,89)" stroke="rgb(140,90,89)" stroke-width="1" opacity="1" d="M 661.5 1184 L 666 1184.5 L 661.5 1185 L 661.5 1184 Z " /><path fill="rgb(140,90,89)" stroke="rgb(140,90,89)" stroke-width="1" opacity="1" d="M 871.5 1184 L 873 1184.5 L 862.5 1190 L 862.5 1189 L 871.5 1184 Z " /><path fill="rgb(140,90,89)" stroke="rgb(140,90,89)" stroke-width="1" opacity="1" d="M 432.5 1185 L 452 1187.5 L 445.5 1188 L 444.5 1187 L 432.5 1186 L 432.5 1185 Z " /><path fill="rgb(140,90,89)" stroke="rgb(140,90,89)" stroke-width="1" opacity="1" d="M 652.5 1185 L 660 1185.5 L 640.5 1188 L 640.5 1187 L 645.5 1187 L 652.5 1185 Z " /><path fill="rgb(140,90,89)" stroke="rgb(140,90,89)" stroke-width="1" opacity="1" d="M 228.5 1187 L 234 1189.5 L 232.5 1190 L 228.5 1188 L 228.5 1187 Z " /><path fill="rgb(140,90,89)" stroke="rgb(140,90,89)" stroke-width="1" opacity="1" d="M 453.5 1188 L 459 1188.5 L 453.5 1189 L 453.5 1188 Z " /><path fill="rgb(140,90,89)" stroke="rgb(140,90,89)" stroke-width="1" opacity="1" d="M 632.5 1188 L 638 1188.5 L 632.5 1189 L 632.5 1188 Z " /><path fill="rgb(140,90,89)" stroke="rgb(140,90,89)" stroke-width="1" opacity="1" d="M 461.5 1189 L 467 1189.5 L 461.5 1190 L 461.5 1189 Z " /><path fill="rgb(140,90,89)" stroke="rgb(140,90,89)" stroke-width="1" opacity="1" d="M 624.5 1189 L 630 1189.5 L 624.5 1190 L 624.5 1189 Z " /><path fill="rgb(140,90,89)" stroke="rgb(140,90,89)" stroke-width="1" opacity="1" d="M 235.5 1190 L 257 1200.5 L 255.5 1200 L 235.5 1191 L 235.5 1190 Z " /><path fill="rgb(140,90,89)" stroke="rgb(140,90,89)" stroke-width="1" opacity="1" d="M 468.5 1190 L 487.5 1191 L 488.5 1192 L 501.5 1192 L 502.5 1193 L 524 1193.5 L 502.5 1194 L 501.5 1193 L 486.5 1193 L 485.5 1192 L 468.5 1191 L 468.5 1190 Z " /><path fill="rgb(140,90,89)" stroke="rgb(140,90,89)" stroke-width="1" opacity="1" d="M 614.5 1190 L 622 1190.5 L 613.5 1192 L 604.5 1192 L 603.5 1193 L 592.5 1193 L 591.5 1194 L 569.5 1194 L 569.5 1193 L 591.5 1193 L 592.5 1192 L 602.5 1192 L 603.5 1191 L 613.5 1191 L 614.5 1190 Z " /><path fill="rgb(140,90,89)" stroke="rgb(140,90,89)" stroke-width="1" opacity="1" d="M 859.5 1190 L 861 1190.5 L 855.5 1193 L 855.5 1192 L 859.5 1190 Z " /><path fill="rgb(140,90,89)" stroke="rgb(140,90,89)" stroke-width="1" opacity="1" d="M 852.5 1193 L 854 1193.5 L 838.5 1201 L 838.5 1200 L 852.5 1193 Z " /><path fill="rgb(140,90,89)" stroke="rgb(140,90,89)" stroke-width="1" opacity="1" d="M 525.5 1194 L 565 1194.5 L 525.5 1195 L 525.5 1194 Z " /><path fill="rgb(140,90,89)" stroke="rgb(140,90,89)" stroke-width="1" opacity="1" d="M 258.5 1201 L 265 1203.5 L 262.5 1204 L 258.5 1202 L 258.5 1201 Z " /><path fill="rgb(140,90,89)" stroke="rgb(140,90,89)" stroke-width="1" opacity="1" d="M 835.5 1201 L 837 1201.5 L 821.5 1209 L 822.5 1207 L 830.5 1203 L 833.5 1203 L 835.5 1201 Z " /><path fill="rgb(140,90,89)" stroke="rgb(140,90,89)" stroke-width="1" opacity="1" d="M 266.5 1204 L 284 1211.5 L 281.5 1212 L 279.5 1210 L 276.5 1210 Q 273.7 1206.3 267.5 1206 L 266.5 1204 Z " /><path fill="rgb(140,90,89)" stroke="rgb(140,90,89)" stroke-width="1" opacity="1" d="M 816.5 1209 L 820 1209.5 L 812.5 1212 L 812.5 1211 L 816.5 1209 Z " /><path fill="rgb(140,90,89)" stroke="rgb(140,90,89)" stroke-width="1" opacity="1" d="M 286.5 1212 L 297.5 1217 L 301.5 1217 L 306.5 1220 L 317 1222.5 L 312.5 1223 L 301.5 1218 L 297.5 1218 Q 295.6 1214.4 289.5 1215 L 286.5 1212 Z " /><path fill="rgb(140,90,89)" stroke="rgb(140,90,89)" stroke-width="1" opacity="1" d="M 809.5 1212 L 811 1212.5 L 807.5 1215 L 803.5 1215 L 799.5 1218 Q 794.2 1217.2 792.5 1220 L 793.5 1218 L 799.5 1217 L 809.5 1212 Z " /><path fill="rgb(140,90,89)" stroke="rgb(140,90,89)" stroke-width="1" opacity="1" d="M 786.5 1220 L 791 1220.5 L 786.5 1221 L 784.5 1223 L 781.5 1223 L 769.5 1228 L 769.5 1227 L 772.5 1225 L 776.5 1225 Q 778.4 1221.4 784.5 1222 L 786.5 1220 Z " /><path fill="rgb(140,90,89)" stroke="rgb(140,90,89)" stroke-width="1" opacity="1" d="M 318.5 1223 Q 320.8 1225.8 326 1225.5 L 321.5 1226 L 318.5 1223 Z " /><path fill="rgb(140,90,89)" stroke="rgb(140,90,89)" stroke-width="1" opacity="1" d="M 327.5 1226 L 330 1227.5 L 328.5 1228 L 327.5 1226 Z " /><path fill="rgb(140,90,89)" stroke="rgb(140,90,89)" stroke-width="1" opacity="1" d="M 331.5 1228 Q 338 1227 340 1230.5 L 338.5 1231 Q 337.3 1227.8 331.5 1229 L 331.5 1228 Z " /><path fill="rgb(140,90,89)" stroke="rgb(140,90,89)" stroke-width="1" opacity="1" d="M 764.5 1228 L 768 1228.5 L 761.5 1231 L 761.5 1230 L 764.5 1228 Z " /><path fill="rgb(140,90,89)" stroke="rgb(140,90,89)" stroke-width="1" opacity="1" d="M 342.5 1231 L 353 1233.5 L 347.5 1234 Q 346.7 1231.3 342.5 1232 L 342.5 1231 Z " /><path fill="rgb(140,90,89)" stroke="rgb(140,90,89)" stroke-width="1" opacity="1" d="M 757.5 1231 L 760 1231.5 L 756.5 1233 L 757.5 1231 Z " /><path fill="rgb(140,90,89)" stroke="rgb(140,90,89)" stroke-width="1" opacity="1" d="M 354.5 1234 L 357 1235.5 L 355.5 1235 L 354.5 1234 Z " /><path fill="rgb(140,90,89)" stroke="rgb(140,90,89)" stroke-width="1" opacity="1" d="M 747.5 1235 L 749 1235.5 L 741.5 1240 Q 736.2 1239.2 734.5 1242 L 734.5 1241 L 747.5 1235 Z " /><path fill="rgb(140,90,89)" stroke="rgb(140,90,89)" stroke-width="1" opacity="1" d="M 358.5 1236 Q 365 1235 367 1238.5 L 365.5 1238 L 358.5 1237 L 358.5 1236 Z " /><path fill="rgb(140,90,89)" stroke="rgb(140,90,89)" stroke-width="1" opacity="1" d="M 369.5 1239 L 376.5 1239 Q 377.8 1241.8 382 1241.5 L 378.5 1242 Q 376.8 1238.3 369.5 1240 L 369.5 1239 Z " /><path fill="rgb(140,90,89)" stroke="rgb(140,90,89)" stroke-width="1" opacity="1" d="M 386.5 1242 L 397 1244.5 L 391.5 1245 L 386.5 1243 L 386.5 1242 Z " /><path fill="rgb(140,90,89)" stroke="rgb(140,90,89)" stroke-width="1" opacity="1" d="M 728.5 1242 L 732 1242.5 Q 727.8 1242.3 726.5 1245 L 722.5 1245 L 722.5 1244 Q 727.1 1244.6 728.5 1242 Z " /><path fill="rgb(140,90,89)" stroke="rgb(140,90,89)" stroke-width="1" opacity="1" d="M 398.5 1245 L 411 1249.5 L 407.5 1250 L 398.5 1246 L 398.5 1245 Z " /><path fill="rgb(140,90,89)" stroke="rgb(140,90,89)" stroke-width="1" opacity="1" d="M 718.5 1245 L 721 1245.5 L 709.5 1250 L 709.5 1249 Q 711.2 1246.2 716.5 1247 L 718.5 1245 Z " /><path fill="rgb(140,90,89)" stroke="rgb(140,90,89)" stroke-width="1" opacity="1" d="M 413.5 1250 Q 418.1 1249.4 419.5 1252 L 425.5 1252 L 432.5 1255 L 438.5 1255 L 445.5 1258 L 463.5 1260 L 470.5 1263 L 503 1268.5 L 498.5 1269 L 492.5 1267 L 479.5 1266 L 462.5 1261 L 456.5 1261 L 452.5 1259 L 445.5 1259 L 438.5 1256 L 432.5 1256 Q 428.4 1252.1 419.5 1253 L 413.5 1251 L 413.5 1250 Z " /><path fill="rgb(140,90,89)" stroke="rgb(140,90,89)" stroke-width="1" opacity="1" d="M 701.5 1250 L 708 1250.5 L 701.5 1251 L 697.5 1253 L 697.5 1252 L 701.5 1250 Z " /><path fill="rgb(140,90,89)" stroke="rgb(140,90,89)" stroke-width="1" opacity="1" d="M 693.5 1253 L 696 1253.5 L 691.5 1256 L 686.5 1256 L 682.5 1259 L 678.5 1259 L 678.5 1258 L 682.5 1258 L 686.5 1255 Q 692.3 1256.3 693.5 1253 Z " /><path fill="rgb(140,90,89)" stroke="rgb(140,90,89)" stroke-width="1" opacity="1" d="M 676.5 1259 L 675.5 1261 L 674 1260.5 L 676.5 1259 Z " /><path fill="rgb(140,90,89)" stroke="rgb(140,90,89)" stroke-width="1" opacity="1" d="M 669.5 1261 L 673 1261.5 L 664.5 1264 L 664.5 1263 L 669.5 1261 Z " /><path fill="rgb(140,90,89)" stroke="rgb(140,90,89)" stroke-width="1" opacity="1" d="M 661.5 1264 L 663 1264.5 L 658.5 1267 Q 649.2 1265.7 644.5 1269 L 644.5 1268 Q 649.2 1264.7 658.5 1266 L 661.5 1264 Z " /><path fill="rgb(140,90,89)" stroke="rgb(140,90,89)" stroke-width="1" opacity="1" d="M 504.5 1269 L 526.5 1272 L 531.5 1274 L 543 1274.5 L 530.5 1275 L 520.5 1272 L 512.5 1272 Q 510.2 1269.3 504.5 1270 L 504.5 1269 Z " /><path fill="rgb(140,90,89)" stroke="rgb(140,90,89)" stroke-width="1" opacity="1" d="M 637.5 1269 L 643 1269.5 L 630.5 1272 L 630.5 1271 L 637.5 1269 Z " /><path fill="rgb(140,90,89)" stroke="rgb(140,90,89)" stroke-width="1" opacity="1" d="M 624.5 1272 L 628 1272.5 L 605.5 1278 L 565.5 1278 L 564.5 1277 L 548.5 1277 L 544 1275.5 L 547.5 1275 L 548.5 1276 L 567.5 1276 L 568.5 1277 L 604.5 1277 L 615.5 1274 L 620.5 1274 L 624.5 1272 Z " /><path fill="rgb(251,251,251)" stroke="rgb(251,251,251)" stroke-width="1" opacity="1" d="M 695.5 2 L 713.5 2 L 722.5 4 L 769.5 4 Q 770.7 6.3 775.5 5 L 778.5 7 L 801.5 7 L 807.5 10 L 821.5 10 L 828.5 13 L 838.5 13 Q 842 17 851.5 15 L 857.5 18 L 867.5 18 L 871.5 21 L 879.5 21 Q 883 25 891.5 24 L 893.5 26 L 900.5 26 L 906.5 29 L 912.5 29 L 916.5 32 L 921.5 32 L 931.5 37 L 936.5 37 L 940.5 40 L 945.5 40 L 950.5 43 L 954.5 43 L 956.5 45 L 963.5 46 L 965.5 48 Q 972.2 47.3 974.5 51 L 978.5 51 L 982.5 54 L 985.5 54 L 1001.5 62 L 1004.5 62 L 1019.5 70 L 1023.5 70 L 1043.5 81 L 1046.5 81 L 1049.5 84 L 1057.5 87 L 1067.5 94 L 1085.5 103 L 1126.5 130 L 1138 136 Q 1136.9 138.7 1139.5 138 L 1179.5 169 L 1184 171 L 1185.5 174 L 1198 183.5 Q 1197.3 185.8 1199.5 185 L 1234 216.5 Q 1233.3 218.8 1235.5 218 L 1242 226 Q 1244.7 224.9 1244 227.5 L 1252 237.5 L 1254 244.5 L 1252 249 L 1250.5 249 L 1237.5 262 L 1201.5 292 L 1196 295 Q 1197.1 297.7 1194.5 297 L 1125.5 355 L 1116 361 Q 1117.1 363.7 1114.5 363 Q 1108.6 370.4 1100 374 L 1098.5 377 L 1095.5 379 L 1082 391.5 L 1086 399.5 L 1099 416.5 L 1100 420 Q 1102.7 418.9 1102 421.5 L 1118 445.5 L 1119 449.5 L 1127 461.5 L 1127 464 Q 1129.7 462.9 1129 465.5 L 1140 486.5 L 1140 489.5 L 1143 493.5 L 1143 496.5 L 1146 500.5 L 1146 503.5 L 1149 507.5 L 1152 518.5 L 1154 520.5 L 1154 523.5 L 1157 527.5 L 1157 531.5 L 1159 533.5 L 1163 548.5 L 1165 550.5 L 1165 556.5 L 1168 562.5 L 1168 567.5 L 1170 570.5 L 1171 578.5 L 1173 581.5 L 1173 587.5 L 1176 594.5 L 1176 602.5 L 1179 609.5 L 1179 616.5 L 1181 619.5 L 1182 633.5 L 1184 636.5 L 1184 652.5 L 1187 666.5 L 1187 729.5 L 1184 742.5 L 1184 757.5 L 1182 760.5 L 1181 777.5 L 1179 780.5 Q 1180.2 791.7 1176 797.5 L 1176 806.5 L 1173 812.5 L 1173 819.5 L 1171 821.5 L 1170 829.5 L 1168 832.5 L 1168 837.5 L 1165 843.5 L 1165 848.5 L 1162 853.5 L 1162 857.5 L 1160 859.5 L 1159 865.5 L 1157 867.5 L 1157 871.5 L 1154 875.5 L 1154 879.5 L 1151 882.5 L 1149 890.5 L 1146 894.5 L 1146 898.5 L 1138 912.5 L 1135 922.5 L 1121 949.5 L 1102 978.5 L 1102 980.5 L 1089 997.5 L 1088 1001 Q 1085.3 999.9 1086 1002.5 L 1062 1032.5 L 1061 1036 Q 1058.3 1034.9 1059 1037.5 L 1027 1070.5 L 1027 1072 L 1024 1073.5 Q 1024.8 1075.8 1022.5 1075 L 1006 1090.5 Q 1006.8 1092.8 1004.5 1092 Q 996.4 1102.3 985 1108 Q 986.1 1110.7 983.5 1110 L 971 1119 Q 972.1 1121.7 969.5 1121 L 956.5 1132 L 920.5 1157 L 904.5 1165 L 901.5 1168 L 899.5 1168 L 873.5 1184 L 857.5 1192 L 852.5 1193 L 844.5 1198 L 841.5 1198 L 833.5 1203 L 830.5 1203 L 820.5 1209 L 816.5 1209 L 807.5 1214 L 803.5 1214 Q 801.9 1217.9 795.5 1217 L 791.5 1220 L 786.5 1220 L 776.5 1225 L 772.5 1225 L 768.5 1228 L 764.5 1228 L 760.5 1231 L 757.5 1231 L 753.5 1234 L 750.5 1234 L 740.5 1239 L 737.5 1239 L 733.5 1242 L 728.5 1242 Q 725.3 1245.3 718.5 1245 L 708.5 1250 L 701.5 1250 L 691.5 1255 L 686.5 1255 L 682.5 1258 L 678.5 1258 L 673.5 1261 L 669.5 1261 L 658.5 1266 L 649.5 1266 L 643.5 1269 L 637.5 1269 L 629.5 1272 L 624.5 1272 L 620.5 1274 L 615.5 1274 L 604.5 1277 L 568.5 1277 L 567.5 1276 L 548.5 1276 Q 542.4 1272.6 531.5 1274 L 526.5 1272 L 513.5 1271 L 509.5 1269 L 503.5 1269 L 492.5 1266 L 475.5 1264 L 463.5 1260 L 445.5 1258 L 438.5 1255 L 432.5 1255 L 425.5 1252 L 419.5 1252 L 416.5 1250 L 407.5 1249 L 405.5 1247 L 402.5 1247 L 396.5 1244 Q 390.5 1245 388.5 1242 L 382.5 1242 L 376.5 1239 L 367.5 1239 L 363.5 1236 L 357.5 1236 L 352.5 1233 L 347.5 1233 Q 346.3 1229.8 340.5 1231 L 336.5 1228 L 330.5 1228 L 328.5 1226 L 321.5 1225 L 319.5 1223 L 312.5 1222 L 301.5 1217 L 297.5 1217 Q 295.6 1213.4 289.5 1214 L 287.5 1212 L 281.5 1211 L 279.5 1209 L 276.5 1209 L 272.5 1206 L 269.5 1206 L 260.5 1201 L 257.5 1201 L 237.5 1190 L 227.5 1187 L 199.5 1173 L 189.5 1166 L 185 1165 Q 186.1 1162.3 183.5 1163 L 161.5 1151 L 155.5 1146 L 153.5 1146 L 140.5 1136 L 136.5 1135 L 131.5 1130 L 120.5 1124 L 103.5 1110 L 83 1096 Q 84.1 1093.3 81.5 1094 L 60.5 1075 L 50 1068 Q 51.1 1065.3 48.5 1066 Q 39.2 1053.8 26 1045.5 Q 26.8 1043.3 24.5 1044 Q 20.7 1041.3 20 1035.5 L 32.5 1023 L 75 990 Q 73.9 987.3 76.5 988 L 110 958.5 L 110 953.5 L 106 948.5 L 106 946.5 L 87 921.5 L 76 904.5 L 75 900 Q 72 901.3 73 897.5 L 67 888.5 L 54 862.5 L 53 857.5 L 48 849.5 L 45 838.5 L 43 836.5 L 43 833.5 L 40 829.5 Q 40.6 823.4 37 821.5 L 37 817.5 L 35 815.5 L 35 812.5 L 32 807.5 L 32 803.5 L 29 798.5 L 29 794.5 L 26 788.5 Q 27 782.5 24 780.5 L 24 774.5 L 21 768.5 L 21 761.5 L 18 757.5 L 18 750.5 L 15 744.5 Q 16.2 737.8 13 735.5 L 13 728.5 L 10 721.5 L 10 710.5 L 7 704.5 L 7 685.5 L 5 682.5 L 4 647.5 L 3 646.5 L 3 636.5 L 2 635.5 L 2 613.5 L 4 605.5 L 4 586.5 L 5 585.5 L 5 567.5 L 7 563.5 L 7 546.5 L 10 541.5 L 10 530.5 L 13 524.5 L 13 515.5 L 15 512.5 L 16 502.5 L 18 500.5 L 18 492.5 L 21 489.5 L 21 482.5 L 24 477.5 L 24 472.5 L 26 470.5 Q 25.3 463.3 29 460.5 L 29 455.5 L 32 451.5 L 32 446.5 L 34 444.5 L 35 437.5 L 37 435.5 L 37 431.5 Q 40.5 429.5 40 423.5 L 45 415.5 L 48 405.5 L 51 401.5 L 51 398.5 L 59 383.5 L 59 380.5 L 67 364.5 L 70 361.5 L 70 358.5 L 73 355.5 L 73 352 Q 75.7 353.1 75 350.5 L 95 316 Q 97.7 317.1 97 314.5 L 119 283.5 L 120 280 Q 122.7 281.1 122 278.5 L 141 254.5 L 155.5 239 Q 157.8 239.8 157 237.5 Q 172 218 190.5 202 Q 192.8 202.8 192 200.5 L 196 197.5 Q 195.3 195.3 197.5 196 L 220.5 175 L 227 171 Q 225.9 168.3 228.5 169 L 238.5 160 L 278.5 131 L 327.5 100 L 345.5 92 L 364.5 81 L 367.5 81 L 381.5 73 L 384.5 73 L 394.5 67 L 397.5 67 L 406.5 62 L 409.5 62 L 412.5 59 L 416.5 59 L 420.5 56 L 423.5 56 L 441.5 48 L 445.5 48 L 447.5 46 L 454.5 45 L 464.5 40 L 470.5 40 Q 473.1 36.1 480.5 37 L 482.5 35 L 489.5 34 L 491.5 32 L 497.5 32 L 502.5 29 L 509.5 29 L 515.5 26 L 520.5 26 L 523.5 24 L 533.5 23 L 535.5 21 L 543.5 21 L 547.5 18 L 557.5 18 L 563.5 15 L 572.5 15 L 575.5 13 L 589.5 12 L 592.5 10 L 605.5 10 L 612.5 7 L 634.5 7 L 638.5 5 L 683.5 4 L 684.5 3 L 694.5 3 L 695.5 2 Z M 676 68 L 675 69 L 657 69 L 656 70 L 645 70 L 644 71 L 619 73 L 618 74 L 597 76 L 591 78 L 565 82 L 503 98 L 451 116 Q 433 126 413 132 L 375 151 L 329 178 L 284 210 L 235 253 Q 236 255 234 254 L 218 271 L 215 272 L 174 322 L 150 357 L 124 402 L 110 431 L 92 478 L 85 508 L 82 516 L 82 522 L 78 538 L 78 544 L 76 549 L 75 565 L 73 573 L 73 582 L 72 583 L 72 600 L 70 611 L 71 612 L 71 655 L 72 656 L 72 667 L 73 668 L 73 679 L 75 688 L 75 696 L 83 738 L 85 742 L 92 771 L 100 794 L 117 834 L 144 883 Q 172 924 206 960 Q 209 961 208 966 L 136 1026 Q 133 1025 134 1028 L 123 1036 L 118 1042 L 159 1072 L 199 1098 L 267 1134 L 306 1151 L 380 1174 L 427 1185 L 468 1190 L 469 1191 L 476 1191 L 477 1192 L 502 1193 L 503 1194 L 525 1194 L 526 1195 L 592 1194 L 593 1193 L 604 1193 L 605 1192 L 614 1192 L 631 1189 L 638 1189 L 639 1188 L 646 1188 L 686 1181 L 690 1179 L 714 1174 L 746 1165 L 794 1147 L 798 1144 L 816 1137 L 854 1118 Q 895 1095 931 1065 Q 933 1066 932 1063 L 954 1046 L 995 1006 Q 994 1003 997 1004 L 1032 959 L 1048 935 Q 1069 900 1085 861 L 1095 834 L 1106 795 L 1111 761 L 1113 755 L 1114 736 L 1115 735 L 1115 721 L 1116 720 L 1116 688 L 1115 687 L 1115 673 L 1114 672 L 1115 668 L 1114 667 L 1113 646 L 1111 640 L 1109 621 L 1100 582 L 1087 544 L 1079 525 L 1057 482 L 1043 460 Q 1016 421 983 390 L 983 387 L 1128 265 Q 1143 255 1156 242 L 1159 241 L 1158 236 L 1153 233 L 1129 212 L 1098 189 L 1057 162 L 997 130 L 944 107 L 914 97 L 910 97 L 903 94 L 884 90 L 877 87 L 822 76 L 815 76 L 808 74 L 785 72 L 784 71 L 759 70 L 758 69 L 740 69 L 739 68 L 676 68 Z " /><path fill="rgb(251,251,251)" stroke="rgb(251,251,251)" stroke-width="1" opacity="1" d="M 933.5 429 L 939 432.5 L 954 448.5 L 954 450 L 957 451.5 Q 976.8 472.2 993 496.5 L 1014 533.5 L 1031 571.5 L 1041 603.5 L 1049 640.5 L 1049 647.5 L 1051 654.5 L 1051 666.5 L 1052 667.5 L 1052 680.5 L 1053 681.5 L 1053 722.5 L 1052 723.5 L 1049 763.5 L 1041 800.5 L 1031 833.5 L 1014 874.5 L 993 911.5 L 981 928.5 L 947 969.5 L 914.5 1004 Q 842 1067 744.5 1105 L 685.5 1122 L 653.5 1129 L 647.5 1129 L 618.5 1134 L 608.5 1134 L 607.5 1135 L 562.5 1137 L 561.5 1138 L 536.5 1138 L 535.5 1137 L 513.5 1137 L 512.5 1136 L 487.5 1135 L 486.5 1134 L 477.5 1134 L 476.5 1133 L 449.5 1130 L 400.5 1119 L 393.5 1116 L 363.5 1108 L 321.5 1093 L 319.5 1091 L 284.5 1076 L 243.5 1054 L 221.5 1040 L 217 1035.5 L 219 1032 L 450.5 840 L 468 827 Q 466.9 824.3 469.5 825 L 510.5 791 L 517.5 786 L 520.5 786 Q 546.9 803.6 582.5 812 L 605.5 816 L 613.5 816 L 614.5 817 L 645.5 817 L 683.5 810 L 705.5 803 L 721.5 796 Q 759.5 779.5 784 749.5 L 788 743 Q 790.7 744.1 790 741.5 Q 801.8 727.8 810 710.5 L 820 684.5 L 824 667.5 L 824 660.5 L 827 644.5 L 827 622.5 L 825 615.5 L 823 595.5 L 818 576.5 Q 812 558.5 802 544.5 L 802 541.5 L 860.5 490 L 933.5 429 Z " /><path fill="rgb(251,251,251)" stroke="rgb(251,251,251)" stroke-width="1" opacity="1" d="M 616.5 513 L 648.5 514 L 649.5 515 L 666.5 517 L 683.5 522 L 705.5 533 L 731 553.5 L 735 558.5 L 746 572.5 L 758 598.5 L 763 621.5 L 763 647.5 L 759 667.5 L 752 684.5 Q 741 708 722.5 724 Q 701 742 671.5 752 L 649.5 756 L 626.5 757 L 625.5 756 L 610.5 756 L 609.5 755 L 597.5 754 L 575.5 747 Q 550.1 735.4 532 716.5 Q 514.2 696.8 505 668.5 L 501 647.5 L 501 621.5 L 505 599.5 L 516 574.5 Q 527.2 555.2 544.5 542 Q 559.2 529.7 578.5 522 L 597.5 516 L 615.5 514 L 616.5 513 Z " /></svg>