<svg xmlns="http://www.w3.org/2000/svg" viewBox="0 0 24 24" fill="none">
  <!-- Outer rays (Solgaleo's mane-like rays) -->
  <path d="M12 1l1.09 3.35h3.52l-2.85 2.07 1.09 3.35L12 7.7l-2.85 2.07 1.09-3.35L7.39 4.35h3.52L12 1z" fill="#F59E0B" opacity="0.5"/>
  <path d="M12 2.5v3M12 18.5v3M2.5 12h3M18.5 12h3" stroke="#F59E0B" stroke-width="2" stroke-linecap="round"/>
  <path d="M5.64 5.64l2.12 2.12M16.24 16.24l2.12 2.12M5.64 18.36l2.12-2.12M16.24 7.76l2.12-2.12" stroke="#F59E0B" stroke-width="1.5" stroke-linecap="round"/>
  <!-- Core sun (Solgaleo's forehead sun) -->
  <circle cx="12" cy="12" r="4.5" fill="#F59E0B"/>
  <circle cx="12" cy="12" r="3" fill="#FBBF24"/>
  <!-- Inner star detail -->
  <path d="M12 9.5l.6 1.8h1.9l-1.5 1.1.6 1.8-1.6-1.1-1.6 1.1.6-1.8-1.5-1.1h1.9z" fill="#FDE68A" opacity="0.8"/>
</svg>
